/* XPM */
static char *f1c996f272444aceeb575acff05dd41ahZpsJg2WIuXvLT9P[] = {
/* columns rows colors chars-per-pixel */
"58 58 218 2 ",
"   c black",
".  c #FEAB12",
"X  c #FFB21C",
"o  c #FFBF1D",
"O  c #FEB317",
"+  c #FE9E25",
"@  c #FEAA22",
"#  c #FEA22C",
"$  c #FCAD2C",
"%  c #FEA321",
"&  c #FDBD22",
"*  c #FDB42C",
"=  c #FFBD2B",
"-  c #FDA730",
";  c #FDAC3C",
":  c #FDAA36",
">  c #FCB233",
",  c #FDBB35",
"<  c #FDB33D",
"1  c #FDBC3C",
"2  c #FFC51D",
"3  c #FECA23",
"4  c #FDC42D",
"5  c #FDCB2C",
"6  c #FED229",
"7  c #FCC334",
"8  c #FDCA34",
"9  c #FAC43B",
"0  c #FDC93C",
"q  c #FFDA33",
"w  c #FDDD3E",
"e  c #FCD438",
"r  c #FC9944",
"t  c #FC9A4B",
"y  c #FB9B57",
"u  c #FC9253",
"i  c #FDA345",
"p  c #FDAE41",
"a  c #FCA64C",
"s  c #FCAD4C",
"d  c #FCB542",
"f  c #FDBA42",
"g  c #FCB14A",
"h  c #FCBA4C",
"j  c #FCA354",
"k  c #FCAC54",
"l  c #FBA45C",
"z  c #FBAA5C",
"x  c #FCBE52",
"c  c #FBB35C",
"v  c #FBBB5C",
"b  c #F9B757",
"n  c #FB9961",
"m  c #FBA464",
"M  c #FBAB64",
"N  c #FAAB6B",
"B  c #FBA56D",
"V  c #FBB564",
"C  c #FBBB63",
"Z  c #FBB16D",
"A  c #FABD6D",
"S  c #FAA774",
"D  c #FAAC72",
"F  c #FAAB7A",
"G  c #FAB374",
"H  c #FAB37C",
"J  c #FBBD7D",
"K  c #F9B976",
"L  c #FBC444",
"P  c #FDCB43",
"I  c #FCC44C",
"U  c #FCC94D",
"Y  c #F6C549",
"T  c #FED344",
"R  c #FAD34B",
"E  c #FDDB4B",
"W  c #FBC354",
"Q  c #FACC52",
"!  c #FCC259",
"~  c #FCD154",
"^  c #FBDC52",
"/  c #F9D35A",
"(  c #FADA58",
")  c #FEE44B",
"_  c #FFE246",
"`  c #FDF04F",
"'  c #FDE254",
"]  c #FEEE52",
"[  c #FCE35A",
"{  c #FDED5D",
"}  c #FEF259",
"|  c #FCC364",
" . c #FAC964",
".. c #FCC56A",
"X. c #FBCA6C",
"o. c #F6C969",
"O. c #F9D760",
"+. c #FAD966",
"@. c #F6C777",
"#. c #FBC176",
"$. c #F4CC73",
"%. c #FACC70",
"&. c #F6DD75",
"*. c #F9DE73",
"=. c #F5DD7E",
"-. c #F8DD7C",
";. c #F7D573",
":. c #FAE663",
">. c #FDEB64",
",. c #FDE66B",
"<. c #F9EC6C",
"1. c #FAE376",
"2. c #FAE27E",
"3. c #F9E87B",
"4. c #FAE877",
"5. c #FAA780",
"6. c #FAAD85",
"7. c #F9AE8B",
"8. c #FAB383",
"9. c #FABA84",
"0. c #F9B28C",
"q. c #F9BA8B",
"w. c #F6AF91",
"e. c #F9AF95",
"r. c #F9AF9C",
"t. c #F9B394",
"y. c #F9BC93",
"u. c #F9B79B",
"i. c #F9BC9B",
"p. c #F8B7A3",
"a. c #F8BEA4",
"s. c #F3BFAF",
"d. c #F8BDA8",
"f. c #FAC18B",
"g. c #F5D482",
"h. c #F6DA85",
"j. c #F9DB8D",
"k. c #F4D88B",
"l. c #F9C493",
"z. c #F9CE94",
"x. c #F9C49D",
"c. c #F9C99D",
"v. c #F5C796",
"b. c #F7D99B",
"n. c #FBE383",
"m. c #FBE888",
"M. c #F7E396",
"N. c #F9E596",
"B. c #FCEF9A",
"V. c #F7E898",
"C. c #FEF39D",
"Z. c #FEF395",
"A. c #F8C4A4",
"S. c #F8C3AB",
"D. c #F8CDAB",
"F. c #F4CBAD",
"G. c #F7DEA6",
"H. c #F8DEA7",
"J. c #F8D1AD",
"K. c #F7DFAD",
"L. c #F9DCAD",
"P. c #F8C4B4",
"I. c #F5CEB7",
"U. c #F8CAB3",
"Y. c #F7CCBA",
"T. c #F8C7B9",
"R. c #F7D0B7",
"E. c #F8D4B4",
"W. c #F7D4BD",
"Q. c #F8D4B9",
"!. c #F7DBB7",
"~. c #F6E8A7",
"^. c #F5E3AC",
"/. c #F8E8A7",
"(. c #FCF4A1",
"). c #FFFFAD",
"_. c #F5E7B6",
"`. c #F4EAB4",
"'. c #F6E4BC",
"]. c #F6EABF",
"[. c #FAEDBB",
"{. c #F7F1B9",
"}. c #F7CCC4",
"|. c #F7D3C4",
" X c #F8D3C5",
".X c #F7DAC5",
"XX c #F6D4CB",
"oX c #F7DDCB",
"OX c #F6D7D2",
"+X c #F6DCD4",
"@X c #F5DDDA",
"#X c #F5E6C4",
"$X c #F6EBC4",
"%X c #F6EACB",
"&X c #F5E8C7",
"*X c #FFFAC7",
"=X c #FAF1CD",
"-X c #F6E4D2",
";X c #F5EBD4",
":X c #F6E4DD",
">X c #F6EBDC",
",X c #F6F3D3",
"<X c #F6F3DB",
"1X c #FFFDDF",
"2X c #F8F4D1",
"3X c #F6E6E3",
"4X c #F5EBE5",
"5X c #F5EDEB",
"6X c #F6F2E5",
"7X c #F5F2ED",
"8X c #F6F8EF",
"9X c #F5F5F5",
"0X c #F5F8F5",
"qX c #F5F6F9",
"wX c #F5F8FA",
"eX c #F5FAFE",
"rX c #F5F8FA",
"tX c white",
/* pixels */
"                                                                                                                    ",
"                                                                                                                    ",
"                                                                                                                    ",
"                                                                                                                    ",
"                                                                                                                    ",
"                                                                                                                    ",
"                                                                                                                    ",
"                                                                                                                    ",
"9X9X9X9X9X9X9X9X9X9X9X9X9X9X9X9X3XoXQ.y.t.y..XwX9X7X9X9XeXY.j y.P.p.}.3X9X7X9X9X9X9X9X9X9X9X9X9X9X9X9X9X9X9X9X9X9X9X",
"9X9X9X9X9X9X9X9X9X9X9X9X9X9X9XeX+Xm G S.H y.J W.W.A.A.D.c.l.N l 0.6.a.oX>X9XwX9X9X9X9X9X9X9X9X9X9X9X9X9X9X9X9X9X9X9X",
"9X9X9X9X9X9X9X9X9X9X9X9X9X9X9X4X:Xi.V C g k k z l 9.#.X.W f x V 9.9.F S.eX>X-XeXwX9X9X9X9X9X9X9X9X9X9X9X9X9X9X9X9X9X",
"9X9X9X9X9X9X9X9X9X9X9X9X9X9X9X+X}.y.> & 4 < b C X.B.,.>.{ ) ) ^ ..C s c f.z D F.-X9X9X9X9X9X9X9X9X9X9X9X9X9X9X9X9X9X",
"9X9X9X9X9X9X9X9X9X9X9X9X9X9XeX|.D I 7 5 T E n.2.*XC.>.{ { >.<.' E ^ |  .#.A v.v.c.Q.9X9X9X9X9X9X9X9X9X9X9X9X9X9X9X9X",
"9X9X9X9X9X9X9X9X9X9X9X9X9X3XS.l g 5 q w { } ).tX1X(.,.*.M.^._.`.`.=.%.%.L.oXI.%X.XE.!.0X9X9X9X9X9X9X9X9X9X9X9X9X9X9X",
"9X9X9X9X9X9X9X9X9X9X9X9XeXU.t i , 6 q ] ` ] >.m.1.n.2.M.%X6X9X9X9X7X$X=.Y W J I x c.J.>X4X9X9X9X9X9X9X9X9X9X9X9X9X9X",
"9X9X9X9X9X9X9X9X9X9X9X9X4Xy.G * 2 6 _ w ^ &.h.b.#X;X4X7X6X9X9X9X9X9XqX9X2Xg.@.#.f g @X5X3X5X9X9X9X9X9X9X9X9X9X9X9X9X",
"9X9X9X9X9X9X9X9X9X9X9XwXW.H f.& & 8 R h.&X>X4X7X7X9X9X9X9X9X9X9X9X9X9X9XqX8X^.$.U @ z XX9X4X9X9X9X9X9X9X9X9X9X9X9X9X",
"9X9X9X9X9X9X9X9X9X9X9X>XD K C X * Y ^.7X9X7X9X9X9X9X9X9X9X9X9X9X9X9X9X9X9X9XqX%X&.9 % c @X5XwXqX9X9X9X9X9X9X9X9X9X9X",
"9X9X9X9X9X9X9X9X9X9X4X4XK : d = L _.qX9X9X9X9X9X9X9X9X9X9X9X9X9X9X9X9X9X9X9X9XqX;X$.1 $ 9.@X:X4X9X9X9X9X9X9X9X9X9X9X",
"9X9X9X9X9X9X9X5X4X7X-X9Xq.- f 7 ~.qX9X9X9X9X9X9X9X9X9X9X9X9X9X9X9X9X9X9X9X9X9X9XqX&Xv < s Z D a.9X9X9X9X9X9X9X9X9X9X",
"9X9X9X9X9XwX3XXX XXX|.r.a = P &.7X9X9X9X9X9X9X9X9X9X9X9X9X9X9X9X9X9X9X9X9X9X9X9X9X7Xk.d > ; B d.9XwX9X9X9X9X9X9X9X9X",
"9X9X9X9X4X5X4X X|.s.t.5.s P O.=XqX9X9X9X9X9X9X9X9X9X9X9X9X9X9X9X9X9X9X9X9X9X9X9X9X9X#X .L L c 8.Y.@X9X9X9X9X9X9X9X9X",
"9X9X9X9X:X@X3X3XXXp.7.p.C E V.9X9X9X9X9X9X9X9X9X9X9X9X9X9X9X9X9X9X9X9X9X9X9X9X9X9X9X6Xh.~ P 8 h P.@X5X9X9X9X9X9X9X9X",
"9X9X9X9X9X9X@X@X5Xa.S u.v +.<X9X9X9X9X9X9X9X9X9X9X9X9X9X9X9X9X9X9X9X9X9X9X9X9X9X9X9X9XG.+.R T P H I.u.+XwX9X9X9X9X9X",
"9X9X9X9X9X9X4Xu.P.l m V [ 3.6X9X9X9X9X9X9X9X9X9X9X9X9X9X9X9X9X9X9X9X9X9X9X9X9X9X9X9X9X'.-.[ 0 1 p D M :X9X9X9X9X9X9X",
"9X9X9X9X9X9X9X4Xt.D D < [ (.9X9X9X9X9X9X9X9X9X9X9X9X9X9X9X9X9X9X9X9X9X9X9X9X9X9X9X9XqX-X-.[ h 1 p S.q.7X5X9X9X9X9X9X",
"9X9X9X9X9X9X9X9X3X3XN d [ {.qX9X9X9X9X9X9X9X9X9X9X9X9X9X9X9X9X9X9X9X9X9X9X9X9X9X9X9XqX>Xn.Q g 1 s 9.t.4X9X9X9X9X9X9X",
"9X9X9X9X9X9X9X9XwX4XF W :.`.9X9X9X9X9X9X9X9X9X9X9X9X9X9X9X9X9X9X9X9X9X9X9X9X9X9X9X9X9X4Xj.! k k Z y.i.9X9X9X9X9X9X9X",
"9X9X9X9X9X9X9X9X9X4X7.v ( H.9X9X9X9X9X9X9X9X9X9X9X9X9X9X9X9X9X9X9X9X9X9X9X9X9X9X9X9X9X7Xj.W 8.B M y.@X9X9X9X9X9X9X9X",
"9X9X9X9X9X9X9X9X9X@X6.a.v K.9X9X9X9X9X9X9X9X9X9X9X9X9X9X9X9X9X9X9X9X9X9X9X9X9X9X9X9X9X7Xb.v 8.m R.5X9X9X9X9X9X9X9X9X",
"9X9X9X9X9X9X9X9X9X:Xt.H c !.9X9X9X9X9X9X9X9X9X9X9X9X9X9X9X9X9X9X9X9X9X9X9X9X9X9X9X9X9X4Xz.c D 7.3XwX9X9X9X9X9X9X9X9X",
"9X9X9X9X9X9X9X9X9X5XF F C b.7X9X9X9X9X9X9X9X9X9X9X9X9X9X9X9X9X9X9X9X9X9X9X9X9X9X9X9XqX;XX.A a.t.4X9X9X9X9X9X9X9X9X9X",
"9X9X9X9X9X9X9X9X4X.Xz 0.V ;.>X9X9X9X9X9X9X9X9X9X9X9X9X9X9X9X9X9X9X9X9X9X9X9X9X9X9X9XqX$X+./ S U.9X9X9X9X9X9X9X9X9X9X",
"9X9X9X9X9X9X9XqXW.q.M z k  .].9X9X9X9X9X9X9X9X9X9X9X9X9X9X9X9X9X9X9X9X9X9X9X9X9X9X9X9X{.:.Q D :X9X9X9X9X9X9X9X9X9X9X",
"9X9X9X9X9X9X9X9Xa.q.z < g U V.7X9X9X9X9X9X9X9X9X9X9X9X9X9X9X9X9X9X9X9X9X9X9X9X9X9X9X7XB.( p 8.9X9X9X7X9X9X9X9X9X9X9X",
"9X9X9X9X9X9X9X9Xa.y.k 1 d T 4.;X9X9X9X9X9X9X9X9X9X9X9X9X9X9X9X9X9X9X9X9X9X9X9X9X9X9X2X<.P a y.W.:X9X9X9X9X9X9X9X9X9X",
"9X9X9X9X9X9X5XwXJ.i.H > 7 7 ( ^.9X9X9X9X9X9X9X9X9X9X9X9X9X9X9X9X9X9X9X9X9X9X9X9X9XwX~.R V m j m XX0X9X9X9X9X9X9X9X9X",
"9X9X9X9X9X9X5XqXoXl H k 4 3 8 / &X9X9X9X9X9X9X9X9X9X9X9X9X9X9X9X9X9X9X9X9X9X9X9X9X,X( d F B 9.+Xu.3XqX9X9X9X9X9X9X9X",
"9X9X9X9X9X9X9XqX@Xt.+X}.b O & 8 ;.>X9X9X9X9X9X9X9X9X9X9X9X9X9X9X9X9X9X9X9X9X9X9X6Xg.4 ; F w.T.7X@X4X9X9X9X9X9X9X9X9X",
"9X9X9X9X9X9X9X9X9XqX@X}.7.m + X * $.<X9X9X9X9X9X9X9X9X9X9X9X9X9X9X9X9X9X7X7X6X&Xg.9 X u t.t. X+X4X@X9X9X9X9X9X9X9X9X",
"9X9X9X9X9X9X9X9X9X9X7X:XXXe.r . # > $.<XwX9X9X9X9X9X9X9X9X9X9X9X9X7X7X>X%X$XM./ L o k S.|.XXXX}.3X5X+X7X9X9X9X9X9X9X",
"9X9X9X9X9X9X9X9X9X9X9X9XqX9.y c * < $ Q /.6XqX9X9X9X9X9X9X9X4X<X;X%X_.^.N.1.E 8 7 @ c.>X:X7XOXOX3XwX9X9X9X9X9X9X9X9X",
"9X9X9X9X9X9X9X9X9X9X9X9X9X4XD.oX!.E.y.| 9 2.$X7X9X9X9X9X7X4X>X]././.[.=X/.[ ) T 4 + l.4X7X9X9X9X9X9X9X9X9X9X9X9X9X9X",
"9X9X9X9X9X9X9X9X9X9X9X9X9XqXoXA.A.J.z.l...C / V.{.,X6X<X%X'./.N.m.n.C.Z.4.' q P # r Y.wX9X9X9X9X9X9X9X9X9X9X9X9X9X9X",
"9X9X9X9X9X9X9X9X9X9X9X9X9X9XqX>XD.D i c h x ~ P R <.3.2.O.Q Q R e ^ +.5 3 5 5 * y 6.|.9X9X9X9X9X9X9X9X9X9X9X9X9X9X9X",
"9X9X9X9X9X9X9X9X9X9X9X9X9X9X9X9XeXoXQ.9Xe.n 8.y.X.E E ' ) U h ! | I $ > , 4 7 j A.4X7X9X9X9X9X9X9X9X9X9X9X9X9X9X9X9X",
"9X9X9X9X9X9X9X9X9X9X9X9X9X9X9X9X9XeXqX5XXXt.t.7.M s ; g C 9.y.Z H j p , > > y.}.+X0X7X9X9X9X9X9X9X9X9X9X9X9X9X9X9X9X",
"9X9X9X9X9X9X9X9X9X9X9X9X9X9X9X9X9X9X9X9X@Xp.7.0.l B x.y.A.0.t.t.Z z N s Z D U.:X3X9X7X9X9X9X9X9X9X9X9X9X9X9X9X9X9X9X",
"9X9X9X9X9X9X9X9X9X9X9X9X9X9X9X9X9X9X9X9X@X+XY.XXy.l :XqX9X5X4X9X5Xl.i.q.Y.Z F 3XwX9X9X9X9X9X9X9X9X9X9X9X9X9X9X9X9X9X",
"                                                                                                                    ",
"                                                                                                                    ",
"                                                                                                                    ",
"                                                                                                                    ",
"                                                                                                                    ",
"                                                                                                                    ",
"                                                                                                                    ",
"                                                                                                                    ",
"                                                                                                                    "
};
