/* XPM */
static char *c786685d36204681cbf22be521c4b9c5bnhQbfE2ickxLBS9[] = {
/* columns rows colors chars-per-pixel */
"58 58 226 2 ",
"   c None",
".  c #3D7CA3",
"X  c #4E7B9A",
"o  c #3F87A0",
"O  c #3C8DB1",
"+  c #3B89BA",
"@  c #4484A4",
"#  c #4B8BAB",
"$  c #4A85A6",
"%  c #5A85A4",
"&  c #5B8BAA",
"*  c #5189A4",
"=  c #4D93AD",
"-  c #5B93A9",
";  c #4C8DB3",
":  c #448BB9",
">  c #438BB4",
",  c #508CB0",
"<  c #4A91BB",
"1  c #4A94BA",
"2  c #5595B2",
"3  c #559AB5",
"4  c #5B9BB4",
"5  c #5495BC",
"6  c #5D94BB",
"7  c #5A9BBC",
"8  c #5C94B7",
"9  c #658EA6",
"0  c #6195AE",
"q  c #6E93A8",
"w  c #639CB5",
"e  c #6199BC",
"r  c #6C9DBA",
"t  c #6897B5",
"y  c #759FB6",
"u  c #789CB6",
"i  c #6DA3BD",
"p  c #60A2BC",
"a  c #74A3BD",
"s  c #7AA3BB",
"d  c #3698C8",
"f  c #3EA4D5",
"g  c #4799C6",
"h  c #539AC4",
"j  c #5D9DC4",
"k  c #5899C7",
"l  c #649EC5",
"z  c #55A3CB",
"x  c #5DA1CC",
"c  c #58A0C3",
"v  c #48ACDD",
"b  c #56A8D6",
"n  c #60A1C6",
"m  c #6BA5C5",
"M  c #6CAAC6",
"N  c #62A4CC",
"B  c #6CA4CC",
"V  c #6EAACD",
"C  c #63A8CF",
"Z  c #72A4C5",
"A  c #75AAC2",
"S  c #7CABC4",
"D  c #75A5CB",
"F  c #74AACB",
"G  c #7CACCA",
"H  c #7DA7C8",
"J  c #7DB1CE",
"K  c #76B5CA",
"L  c #65A6D2",
"P  c #62AAD4",
"I  c #66AEDA",
"U  c #6CABD5",
"Y  c #75AED1",
"T  c #7DADD1",
"R  c #78ADD9",
"E  c #63B1D1",
"W  c #6DB2DB",
"Q  c #67B4DD",
"!  c #74B3D4",
"~  c #7CB4D2",
"^  c #73B3DD",
"/  c #7BB6DE",
"(  c #7BBCD9",
")  c #66B9E4",
"_  c #72B5E2",
"`  c #79BBE4",
"'  c #6BBCF1",
"]  c #7EC3ED",
"[  c #77C6F3",
"{  c #84A4B7",
"}  c #8EA9BE",
"|  c #86A6B6",
" . c #91B1BE",
".. c #83ADC5",
"X. c #84ADCC",
"o. c #8DADC6",
"O. c #92ADC0",
"+. c #8DB2C3",
"@. c #83B2CB",
"#. c #8DB2CD",
"$. c #83BACD",
"%. c #8DB9CD",
"&. c #92B4CA",
"*. c #9DB7C9",
"=. c #83B4D3",
"-. c #8BB6D1",
";. c #85BBD4",
":. c #8BBDD3",
">. c #84B5DB",
",. c #85BBDC",
"<. c #8BBDDD",
"1. c #8AB6D9",
"2. c #95BCD4",
"3. c #9CBED4",
"4. c #92BCD9",
"5. c #9BBDDB",
"6. c #95B6D2",
"7. c #A2BDCA",
"8. c #A2BDD3",
"9. c #84BEE3",
"0. c #81BEEB",
"q. c #8CC1DA",
"w. c #87C1D6",
"e. c #96C2DC",
"r. c #9AC4DC",
"t. c #94C9DD",
"y. c #9BC2D5",
"u. c #AFC1CD",
"i. c #A2C4D5",
"p. c #ACCAD5",
"a. c #A3C5DC",
"s. c #ACC7DC",
"d. c #A9CADE",
"f. c #A7C5D5",
"g. c #B4CDDB",
"h. c #B2C8D6",
"j. c #ABD1DC",
"k. c #BED1D7",
"l. c #83C3E7",
"z. c #8CC4E5",
"x. c #8BC5EA",
"c. c #8ECCEC",
"v. c #85C5E9",
"b. c #96C5E5",
"n. c #99C6E3",
"m. c #9ECAE3",
"M. c #93CAEC",
"N. c #9ECBEA",
"B. c #94C9E8",
"V. c #98D3EC",
"C. c #89CBF5",
"Z. c #9CCEF1",
"A. c #93CAF2",
"S. c #8AD3F8",
"D. c #84D7FB",
"F. c #94D2F6",
"G. c #9ED8F5",
"H. c #A4CDE3",
"J. c #ACCCE2",
"K. c #A3CDEA",
"L. c #ACCEE9",
"P. c #A0C4E3",
"I. c #B2CEE6",
"U. c #A4D1E4",
"Y. c #A5D3EB",
"T. c #ABD3EB",
"R. c #A9D7E6",
"E. c #B4D3E5",
"W. c #B8D5E6",
"Q. c #B4D5EB",
"!. c #BBD5EA",
"~. c #B4DAEC",
"^. c #BBDBEC",
"/. c #BBD8E2",
"(. c #A3D3F5",
"). c #A5D9F4",
"_. c #AEDBF3",
"`. c #AAD9FB",
"'. c #B4D5F0",
"]. c #B3DCF3",
"[. c #BBDEF3",
"{. c #B2DEFD",
"}. c #BDDCF8",
"|. c #B5E2EC",
" X c #A8E0FF",
".X c #BFE1F6",
"XX c #B6E7FF",
"oX c #B5EAFF",
"OX c #BBE7FD",
"+X c #BCF1FF",
"@X c #C6D0DA",
"#X c #C2DCEC",
"$X c #C6DAE4",
"%X c #D5DCE3",
"&X c #C8DDF0",
"*X c #C7E1EC",
"=X c #CDE2EC",
"-X c #D6E5EC",
";X c #DAE3EB",
":X c #C5E3F4",
">X c #CBE4F3",
",X c #CAE8F6",
"<X c #C4E5FA",
"1X c #CDE6FD",
"2X c #C5EAFD",
"3X c #CCEAFC",
"4X c #D4EAF4",
"5X c #DDEBF2",
"6X c #D2EBFD",
"7X c #DAEDFB",
"8X c #D0E3FA",
"9X c #CBF5FF",
"0X c #C3F2FF",
"qX c #D4F2FF",
"wX c #DBF3FF",
"eX c #D8FBFF",
"rX c #E4E9EA",
"tX c #E6E6E7",
"yX c #E3EEF4",
"uX c #E3F3FE",
"iX c #EBF5FE",
"pX c #E5FBFF",
"aX c #EBFCFF",
"sX c #EAF1F7",
"dX c #F3FDFE",
"fX c #F5F8F9",
/* pixels */
"                                                                                                                    ",
"                                                                                                                    ",
"                                                                                                                    ",
"                                                                                                                    ",
"                                                                                                                    ",
"                                                                                                                    ",
"                                        -XuXpX7X6X3X9X9X0X+X].[.qXwX                                                ",
"                                        4X:XQ.J.#...A 4 4 p 2 * @.a.u.                                              ",
"                                    4XE.+...-.X.G G - 2 = = ! m ;.r.3.g.  !.~.t.U.                                  ",
"                                    2.r G =.K.N.].  e.          H.~.{ +.J...- K G.).                                ",
"                                '.Z.,.l V e 1.P.    u.              p.i.S i V n E 4 Y.                              ",
"                              O.% 9.F.7 ; m N.6.                      j.$.w.M.8 @ $ A U.                            ",
"                          g.{ s a ~ 4 M ! ;.                            |.R.  ~.2.2.r.:.K -                         ",
"                        3.q s N.;.J ~ ( ;.Y.y.                                  7X  T.V.= o ,.                      ",
"                      i.9 & e ,.=.n.G q.e.                                        wXT.).x.> O c.                    ",
"                    d.% X >.z.<.u o.T.L.&.                                          eXY.b.A.E 3 J.                  ",
"                8X5.m e T t <.e.7.u.$X                                                wX&.  z.~ w ].                ",
"                '.>.. ! XX4.9 q k.;X                                                    g.^.].).U q.                ",
"              wX(.B < l.{.a.u 7.yX                                                      7X!.  _.l.Z                 ",
"              H.m ; C 9.K.6XaX                                                            *X,X_.F.m ~.              ",
"            E.a j < < ! '.                                                                    2XM.! =.eX            ",
"            y.i C P ^ Z !.                                                                    ^.m ` c XX            ",
"            d.X.5 C.`.X.h.                                                                    p.~ S.b c.            ",
"            !.#.B oX=.[.                                                                      /.;.Q d P wX          ",
"            wX#.Z.Z.s >X                                                                      $X$.[ d ) qX          ",
"            >Xo.`.b.&.wX                                                                        t.D.f g eX          ",
"            =X+.).A 8.                                                                        g.i z v g <X          ",
"            *X%.q.r :X                                                                          q.c b 1 d.          ",
"          dXp.e.B.J :X                                                                          t.( ) ; E.          ",
"          sX*.Y.Z.=.s.                                                                        f.0 l.S.m <X          ",
"            J.{.>.T J.aX                                                                        t G.  F 3X          ",
"            1X`.A.D 5.&X                                                                        y     r 6X          ",
"            aX4.R k D L.wX5X%X                                                                | }   V.0             ",
"              #.B j U <.<X7X@X                                                                 .*.  w.A             ",
"              o.6 W x x.r.#XiX                                                                5.a.  w U.            ",
"              8.l h P C.<.a.uX                                          W.  5X%X;X          I.X.    -               ",
"              !.Z j z [ N @.#X;X                                      a r.^.4XyXsX          d.H 9.~ S               ",
"                #.F g ' > 8 Q.uX  tX                                r.G K.Q.!.=XuX;XsX        >.5 , H.              ",
"                qXa x b z ; e.pX                                  uX:XH.K.OX[.3X$Xk.rX      }.<.W 7                 ",
"                  Q.2 1 I W D J.uX                                yX>Xd.4.XXN.2.:X4X-X5X  1XT.(.I .                 ",
"                    y.e < ^ M.e.>X                                rX$XE.<.z.U m m.<XqX3X<XH.K.D 5 @   %X            ",
"                    wXU.m l / B.J.4X                              fXuX<XB.^ W N z.(.T.L.s y H Z ; m                 ",
"                        K.6 n Y 2.>X                              iXW.N.x.L x g [ ` m J K.T.=.G i T.                ",
"                        qXr j 7 t J.>X                            pX{.`.^ x _ b ' b N r 2X.XK.n.                    ",
"                          s 5 C e & 6.pX                    rX  aX3XM._ _ _ ^ k g + ` b.3X>X^.i.                    ",
"                          &.@ h ] N $ H J.6X        pXaXdXiXyXaXJ.X.v.x h L 0.L : h z.L.g.-X4XaX                    ",
"                          !.4 O b [ k # & ..2X2X3X<X.X^.>X,X#X,Xq.! l.j 5 j j l / <.4.s.$XdX                        ",
"                            m.3 : I 5 7 F A T.r.a %.r.r._.].r.e.V 5 n ! ! c.Y ~ m.L.wXuX                            ",
"                              wX1X3X].2...:.4.-.e.b.{.XX+XoX! # 7 ! ( B.J t e..XwXuX                                ",
"                                      6XW.a.2.#.#.y X.N.M.M @ # F <.G r s i.wX                                      ",
"                                          pXpXpX:XI.8.} { ..@.r.J.a.8.!.wXaX                                        ",
"                                                                                                                    ",
"                                                                                                                    ",
"                                                                                                                    ",
"                                                                                                                    ",
"                                                                                                                    ",
"                                                                                                                    ",
"                                                                                                                    "
};
