/* XPM */
static char *_16dfde9a7174a61842f51e629be7c23m5MkBPrQ3hIoHzqY[] = {
/* columns rows colors chars-per-pixel */
"58 58 234 2 ",
"   c None",
".  c #EEA427",
"X  c #F8B62C",
"o  c #EEA839",
"O  c #F4A934",
"+  c #ECB43D",
"@  c #ECB83D",
"#  c #F2B635",
"$  c #F9B939",
"%  c #EFC33C",
"&  c #F5C536",
"*  c #FCCA32",
"=  c #F9C83C",
"-  c #FFD73E",
";  c #DCA34B",
":  c #DFB841",
">  c #E6A040",
",  c #ECA44C",
"<  c #EBAE4C",
"1  c #E5AA4C",
"2  c #F2AB46",
"3  c #F5AF4B",
"4  c #FDAA42",
"5  c #EAB44A",
"6  c #F2B143",
"7  c #FDBD45",
"8  c #FEB54C",
"9  c #F5BA4C",
"0  c #FCBC4C",
"q  c #F0BE45",
"w  c #E3A455",
"e  c #E7AE57",
"r  c #ECAC54",
"t  c #E4AB5A",
"y  c #F1AC54",
"u  c #F3AC5E",
"i  c #FCAB5D",
"p  c #FFAE55",
"a  c #E5B251",
"s  c #EDB554",
"d  c #EDBA53",
"f  c #EAB25B",
"g  c #EAB959",
"h  c #F3BC52",
"j  c #FBBB55",
"k  c #F3B55A",
"l  c #F9B35A",
"z  c #FBBA5B",
"x  c #F5B453",
"c  c #DEA263",
"v  c #D6A773",
"b  c #EEAC63",
"n  c #EBAE6A",
"m  c #E4AF6D",
"M  c #F1AE62",
"N  c #F2AC6D",
"B  c #EDB363",
"V  c #EAB56C",
"C  c #EDBD6B",
"Z  c #E7B26E",
"A  c #F4B562",
"S  c #FCB262",
"D  c #F2BB65",
"F  c #FABB62",
"G  c #F3B26A",
"H  c #FCB26D",
"J  c #F5BC6B",
"K  c #FCBB6B",
"L  c #E3AD75",
"P  c #E8A877",
"I  c #F4AD73",
"U  c #FAAA73",
"Y  c #F0AA7E",
"T  c #E6B276",
"R  c #EBB674",
"E  c #EEBA75",
"W  c #EEB37D",
"Q  c #E7B97E",
"!  c #F4BB73",
"~  c #FABB74",
"^  c #FDB479",
"/  c #F5B77D",
"(  c #EDC843",
")  c #FAC545",
"_  c #FFC943",
"`  c #FAC34C",
"'  c #FFCA4B",
"]  c #F5C848",
"[  c #FFD746",
"{  c #FDD24C",
"}  c #FFDC46",
"|  c #EEC859",
" . c #FDC254",
".. c #F6C15B",
"X. c #FDCA5A",
"o. c #F8C35B",
"O. c #FCD956",
"+. c #FFE557",
"@. c #EEC364",
"#. c #EBC66D",
"$. c #EECB6C",
"%. c #EDCD66",
"&. c #F8C264",
"*. c #F1CC62",
"=. c #FACB63",
"-. c #F4C36F",
";. c #FCC46A",
":. c #F6CA6C",
">. c #FACC6C",
",. c #FED366",
"<. c #FCDB63",
"1. c #F4D26A",
"2. c #FEDB6B",
"3. c #F5D56A",
"4. c #ECC473",
"5. c #EBC37C",
"6. c #E8C876",
"7. c #F1C477",
"8. c #FCC274",
"9. c #F4CB73",
"0. c #F5C27C",
"q. c #F9C57D",
"w. c #F3CC7B",
"e. c #FBCE77",
"r. c #EDD977",
"t. c #FDD574",
"y. c #F5D47A",
"u. c #FFDD7A",
"i. c #F9D673",
"p. c #FDE46E",
"a. c #FFED69",
"s. c #FEE375",
"d. c #FFE779",
"f. c #FAE878",
"g. c #D8A080",
"h. c #DBB58E",
"j. c #DCB596",
"k. c #ECB481",
"l. c #ECBA8C",
"z. c #E7B38D",
"x. c #F1B181",
"c. c #F4BC85",
"v. c #FCBD82",
"b. c #F1B48D",
"n. c #F8B78F",
"m. c #F8BC8A",
"M. c #EAAD91",
"N. c #F4AC93",
"B. c #E4B393",
"V. c #EBBF95",
"C. c #EAB392",
"Z. c #F6BA95",
"A. c #F2BBAA",
"S. c #EBBCB2",
"D. c #ECC28D",
"F. c #EECF8C",
"G. c #F3C584",
"H. c #FCCD83",
"J. c #F4C08B",
"K. c #F5CC8D",
"L. c #FBC488",
"P. c #EDDC8F",
"I. c #ECD885",
"U. c #FBD484",
"Y. c #FEDB82",
"T. c #FBD58B",
"R. c #F7D78A",
"E. c #EEC49C",
"W. c #FAC691",
"Q. c #FFCD96",
"!. c #F3C498",
"~. c #F4C993",
"^. c #EDDE9D",
"/. c #FAD495",
"(. c #F4DA95",
"). c #FDDC92",
"_. c #FBDA98",
"`. c #F3E385",
"'. c #F3E38A",
"]. c #FEE58B",
"[. c #FEE98A",
"{. c #FDE784",
"}. c #F5E495",
"|. c #FDE493",
" X c #FDEB93",
".X c #FEE49C",
"XX c #F6E99A",
"oX c #FFFB9D",
"OX c #E8C9A8",
"+X c #F4CAA4",
"@X c #F9CCAD",
"#X c #EBD9A7",
"$X c #FFD3A5",
"%X c #FBD3AB",
"&X c #E4C6B6",
"*X c #F2CBB3",
"=X c #FDC4B9",
"-X c #FDD5B1",
";X c #FFD1BC",
":X c #F4D6B4",
">X c #F6E3A1",
",X c #FFE6A5",
"<X c #F5E8A6",
"1X c #FDECA5",
"2X c #FFE6AB",
"3X c #FAE9AB",
"4X c #F6E5AF",
"5X c #FDE1B3",
"6X c #FDECB5",
"7X c #FCE5BC",
"8X c #FEEABB",
"9X c #F4ECB9",
"0X c #FFFDBB",
"qX c #FFF5B6",
"wX c #E9CEC3",
"eX c #F5C6C6",
"rX c #E8D6CA",
"tX c #FCD5C3",
"yX c #F7DBCA",
"uX c #EDD8D7",
"iX c #FDDFD4",
"pX c #F6E5C7",
"aX c #FFE0C6",
"sX c #F1EEC4",
"dX c #FBEDC2",
"fX c #FEEBCE",
"gX c #FFF5C4",
"hX c #F1F3CC",
"jX c #FDECD6",
"kX c #FBE8D4",
"lX c #F9F0D1",
"zX c #EFE5E4",
"xX c #F9EAE6",
"cX c #FFF2EE",
/* pixels */
"                                                                                                                    ",
"                                                                                                                    ",
"                                                                                                                    ",
"                                                                                                                    ",
"                                                                                                                    ",
"                                                                                                                    ",
"                                                                                                                    ",
"                                                                                                                    ",
"                                                            v l.                                                    ",
"                                  j.l.J.v./ J.%X:XOXOX#XK.7.A M W z.                                                ",
"                                  !.V F j 3 y G m G.4.$.*.d h k 8.! T !.                                            ",
"                                  G.d 7 $ $ z A 8.|.u.p.p.<.t.t.;.D V T D.h.                                        ",
"                                B j % = { <.[..X0X1X[.f.p.d.].y.i.i.9.w.5.D.E.*X                                    ",
"                            +XZ 9 _ - } +.f.oX0X0X1X}.`.'. X<X3X,X).6.U.).)./.5X-X                                  ",
"                            L ; # * - +.a.a.{. XP.^.#X#X9X          dX>X6.#.e.C G.V.                                ",
"                          !.n h & - O.O.3.r.I.}.6X                      6XF.4.9.C E                                 ",
"                          m.;.q % ( %.'.3X                                  5XF.:.a B                               ",
"                        C.N X.@ : %..X                                          U.g 1 V                             ",
"                        c., 0 + #..X                                              R.f e                             ",
"                        8.2 7 ..,X                                                  4.f f R C.                      ",
"              rX        r 9 X.Y.                                                      D < y n                       ",
"              yX      L r X.t.                                                        q.j  .z E                     ",
"                        ;.t.                                                          /.=.' ` g !.                  ",
"                    P ~ F U.                                                            i.{ { X./                   ",
"              &X  g.N A t.|.                                                            f.O.) 0 M x.                ",
"              iX  C.b k u.                                                              `.<.` 0 u v.V.              ",
"                    V k u.                                                              '.*.x p S v.E.              ",
"                    T J Y.                                                              P.@.i i N c.OX              ",
"                      L.U.                                                              _.-.H U k.+X                ",
"                        5.                                                              /.! ^ Y @X                  ",
"                        R                                                               K.J v.M.kX                  ",
"                      / E (.                                                            w.C W.A.                    ",
"                    P G D K.                                                            r.3.L @X                    ",
"                    G l < 7.                                                          8Xs.*.Q aX                    ",
"              cX    i 8 6 >.2X                                                        2Xt.f l.jX                    ",
"              cX    S 8 $ o.].                                                      gX).;.u b.;X                    ",
"                      4 7 ) 2.}.                                                    }.:.l u P B.rX                  ",
"                      l  .7 ' 1.dX                                                gXy...S U n.;XwXxX                ",
"                        F 6 X ' T.7X                                            8XR.| < I N.=XxXuXzX                ",
"                          k . X s H.6X                                      fX8XT.@.5 ; n.A.eX                      ",
"                            > O o 5 w.6X                              lX7X2X_.e...h g G.%XtXwX                      ",
"                            c S 3 j t 5.6X                      hXsXpX7X,X].t.` 7 6 q.                              ",
"                                $XQ.0.7.5.(.6X              sX9X<X<X8XqX X2.O.{ 7 , W.                              ",
"                              &X*X-XQ.H.-.#.I.3XdXlXjXfX7X4X>XXX[.]..X|.s.+.[ _ o w                                 ",
"                                &Xh.v R J ;.:.$.r.`.[.].y.$.$.1.| <.2.X.& * * @ w l.                                ",
"                                  pX7X5XT t J &.=.,.<.,.,.=.&...X.q + # X = ) a K.fX                                ",
"                                        tXZ.x.^ b r f B J ~ ~ H K y 2 8 8 s 0.$XtX                                  ",
"                                          S.  b.P W c.W.        Y I G G n k.@X                                      ",
"                                                                                                                    ",
"                                                                                                                    ",
"                                                                                                                    ",
"                                                                                                                    ",
"                                                                                                                    ",
"                                                                                                                    ",
"                                                                                                                    ",
"                                                                                                                    ",
"                                                                                                                    ",
"                                                                                                                    "
};
