/* XPM */
static char *_676f247420940d68f1b8b3ffcb5853bmrsvE97MNECUEcWb[] = {
/* columns rows colors chars-per-pixel */
"58 58 198 2 ",
"   c black",
".  c #2580BB",
"X  c #3883B8",
"o  c #488FBE",
"O  c #4287BB",
"+  c #4F90BC",
"@  c #5B94BD",
"#  c #739DBF",
"$  c #128EC3",
"%  c #0D97CF",
"&  c #2D87C0",
"*  c #2C8CCA",
"=  c #2D8BC7",
"-  c #368CC4",
";  c #318DC8",
":  c #398DC4",
">  c #2C99CD",
",  c #2C92CD",
"<  c #3594CD",
"1  c #3B92CA",
"2  c #359DCD",
"3  c #3D9BCD",
"4  c #209FD2",
"5  c #2B9DD1",
"6  c #379BD1",
"7  c #27A0D5",
"8  c #2CA2D6",
"9  c #31A0D4",
"0  c #39A4D5",
"q  c #39A6D8",
"w  c #408FC5",
"e  c #4694C4",
"r  c #4B92C4",
"t  c #4E97C8",
"y  c #449BCE",
"u  c #4B9BCD",
"i  c #4094CD",
"p  c #5399C5",
"a  c #5B99C6",
"s  c #519DCE",
"d  c #5A9CC9",
"f  c #5495C0",
"g  c #449BD1",
"h  c #4C9DD1",
"j  c #519FD1",
"k  c #679DC3",
"l  c #40A0CF",
"z  c #52A3CD",
"x  c #5AA1CF",
"c  c #42A2D3",
"v  c #4DA3D5",
"b  c #4DA8D7",
"n  c #42AAD9",
"m  c #4BABDA",
"M  c #55A3D4",
"N  c #5CA5D4",
"B  c #5BA9D6",
"V  c #57A5D8",
"C  c #52ACD9",
"Z  c #5DABD9",
"A  c #53AAD5",
"S  c #4FB3DF",
"D  c #54B4DD",
"F  c #5CB3DC",
"G  c #69A1C6",
"H  c #63A6CE",
"J  c #6FA6CB",
"K  c #72A6C9",
"L  c #7BAFCF",
"P  c #7EB0CF",
"I  c #61A6D2",
"U  c #63AAD4",
"Y  c #6DACD4",
"T  c #64ADDB",
"R  c #6BAED9",
"E  c #72AED4",
"W  c #73AFD8",
"Q  c #6CB1D6",
"!  c #6CB1DC",
"~  c #65B9DD",
"^  c #75B2D6",
"/  c #7CB3D6",
"(  c #74B4DB",
")  c #7BB6DB",
"_  c #7DB9DD",
"`  c #62B7E1",
"'  c #69B2E1",
"]  c #77B7E0",
"[  c #74BCE2",
"{  c #7BBCE1",
"}  c #79C3E4",
"|  c #8EAFCB",
" . c #83AAC9",
".. c #9EBACF",
"X. c #93B3CC",
"o. c #82B3D3",
"O. c #8CB5D2",
"+. c #84B7D9",
"@. c #84BBDC",
"#. c #8ABDDE",
"$. c #91BAD6",
"%. c #92BFDC",
"&. c #93B7D2",
"*. c #A0BBD1",
"=. c #84BDE1",
"-. c #88BFE1",
";. c #88C0DF",
":. c #94C1DE",
">. c #9CC4DD",
",. c #A5C2D7",
"<. c #A2C4DB",
"1. c #A9C6DA",
"2. c #A4C8DF",
"3. c #ACCADE",
"4. c #AFC2D4",
"5. c #B3CDDF",
"6. c #85C2E2",
"7. c #8CC2E3",
"8. c #8DCBE7",
"9. c #8DC5E8",
"0. c #93C4E2",
"q. c #9BC7E2",
"w. c #96C9E5",
"e. c #9CCAE5",
"r. c #9CCCE9",
"t. c #9ED0EA",
"y. c #A2CBE4",
"u. c #AACDE3",
"i. c #A4CEE9",
"p. c #AACFE8",
"a. c #B0CFE4",
"s. c #A6D2E7",
"d. c #AED1E6",
"f. c #A6D2EB",
"g. c #ACD2E9",
"h. c #B4D2E5",
"j. c #B9D3E4",
"k. c #B7D8E7",
"l. c #B4D5EA",
"z. c #B9D6E9",
"x. c #B7DAEC",
"c. c #BBDAED",
"v. c #AFDAF0",
"b. c #B9DBF0",
"n. c #C5DAE6",
"m. c #C3DCEC",
"M. c #CBDEEA",
"N. c #C6D6E2",
"B. c #C7E0EF",
"V. c #CDE1ED",
"C. c #D3E3ED",
"Z. c #DBE6ED",
"A. c #DEE8EE",
"S. c #C4E1F2",
"D. c #CCE4F2",
"F. c #D4E6F1",
"G. c #DAE7F0",
"H. c #D4EAF5",
"J. c #DCEBF4",
"K. c #DFF0F9",
"L. c #E0E7EB",
"P. c #E3E9EE",
"I. c #EEEEEE",
"U. c #F0EFEF",
"Y. c #F1F0EF",
"T. c #E4EDF3",
"R. c #EAEFF1",
"E. c #E0EFF9",
"W. c #E7F1F6",
"Q. c #ECF1F4",
"!. c #E7F1F8",
"~. c #ECF4FA",
"^. c #F4F4F4",
"/. c #F8F7F7",
"(. c #F9F8F7",
"). c #F9F8F7",
"_. c #F5F7F9",
"`. c #F2F6F9",
"'. c #F7FAFC",
"]. c #F6F9FA",
"[. c #F8F8F8",
"{. c #F9F9F9",
"}. c #F9F9F8",
"|. c #FAF9F9",
" X c gray98",
".X c #FBFBFB",
"XX c #FAFBFB",
"oX c #F9FAFA",
"OX c #F9FBFD",
"+X c #FAFDFE",
"@X c gray99",
"#X c #FDFDFD",
"$X c #FDFCFC",
"%X c #FEFEFE",
"&X c white",
"*X c #FFFEFE",
"=X c #FEFEFE",
"-X c #FCFCFC",
/* pixels */
"                                                                                                                    ",
"                                                                                                                    ",
"                                                                                                                    ",
"&X&X^.I.^.&X&X^.I.^.&X&X^.I.^.&X&XI.I. X&X XI.I. X&X XI.^.&X&X^.I.^.&X&X^.I.^.&X&X^.I.^.&X&XI.I. X&X XI.I. X&X XI.I.",
"&X&X^.I.^.&X&X^.I.^.&X&X^.I.^.&X&XI.I. X&X XI.I. X&X XI.^.&X&X^.I.^.&X&X^.I.^.&X&X^.I.^.&X&XI.I. X&X XI.I. X&X XI.I.",
"^.^.^. X^.^.^.^. X^.^.^.^. X^.^.^. X^.^.^.^. X X^.^.^. X X^./.(. X X^.^.^. X^.^.^.^. X^.^.^. X X^.^.^. X X^.^.^. X X",
"I.I. X&X XI.I. X&X XI.I.&X&X^.I.^.&X'.T.Z.^.'.J.R.Z.T.K.H.M.n.m.H.Q.I.I. XOXQ.Z.I.&X&X^.I.^.&X&X^.I.^.&X&X^.I.^.&X&X",
"^.^.^. X X^.^. X X X^.^. X X^.^.^. X X^.C.M.l.y._ Y Q 0 c z 2 > ) 0.2.I.J.c.m.y.M.`.$X^.^.^. X X^.^.^. X X^.^.^. X X",
"&X&X^.I.^.&X&X^.I.^.&X&X^.I.^.&X&XQ.Z.k.^ ^ @.^ E I 3 2 2 2 ! I +.>.>.1.C.j.z.w.g.V.Z.^.&X&X^.I. X&X XI.I. X&X XI.I.",
"&X&X^.I.^.&X&X^.I.^.&X&X^.I.^.&X$XA.#.M Q o.3.2.z.F.>.h.2.:.m.h.u.j.K X.1.L p ^ d.h.j.^.&X&X^.I. X&X XI.I. X&X XI.I.",
"^.^.^. X X^.^. X X X^.^. X X(.Q.h.y.@.k H H @.q.n.4.,.].].h.j.J.F.V.y.e.^ N K z U z s.^.^.^. X X^.^.^. X X^.^.^. X X",
"I.I. X&X XI.I. X&X XI.I.&X&XA.P o O.u.u 3 M q.#.u.N.A.'.~.A.L.^.OXQ.C.y.{ #.<.y $ > F s.n.C.&X&X^.I.^.&X&X^.I.^.&X&X",
"^.^.^. X X^.^.^. X^.^.^. Xd.J J G O.s I ^ %.j.u.2.C.Q.T.C.^.^.^.^.^.Q.T.m.y.V.x.6.6.7.7.Z 2 D. X^.^.^. X X^.^.^. X X",
"&X&X^.I.^.&X&X^.I.^.&X].<.f K <.&.L / @.@.e.y.n.T.&X^.I.^.&X&X^.I.C.D.~.J.I.^.OXJ.C.h.3.l % ~ I. X&X XI.I. X&X XI.I.",
"&X&X^.I.^.&X&X^.U.^.OX>.o + @ $.| %.@.7.=.l.C.P. X&X XU.^. XOX^.I.Q.`.~.R.I.^.&X&XT.d.d.6.5 4 w._.&X X^.^. X&X X^.^.",
"^.^.^.&X X^.^. X XC.q.: X O.*...# _ y.g.@.m.J.`.^.^.^.&X X^.I.^.&X XQ.R.].&X X^.^. X~.r.e.0.F 8 y.I.^.&X&X^.^.^.&X&X",
"I.I. X&X XI.I. XF.:.M u / a O.,.,.0.m.Q.P.Q.'.&X^.I.^.&X&X^.I._.&X XI.I. X&X XI.I.&X&XH.[ m.6.} q k.^.&X&X^.I.^.&X&X",
"^.^.^.^.^.^.^.^.h.o.. / V.O.@ p u.R.R.^.(.^.^.^.^.^.^.^.^.^.^.^.^.^.^.^.^.^.^.^.^.^.^.^.t.c.c.t.D } (.^.^.^.^.^.^.^.",
"&X&X^.I.^.&X&XQ.h.I e ) c.q.K #.E.Y.I. X&X XI.I. X&X XI.^.&X&X^.I.^.&X&X^.I.^.&X&X^.I./.K.f.Z.c.6.S W.I.I. X&X XI.I.",
" X X^.^.^..X`.q.M 3 B =.i.F.^. X X^.^. X&X X^.^.].OX^.^.^. X&X^.^.^. X X^.^.^. X X^.^.^. XS.B.x.t.m c.^.^. X&X^.^.^.",
"I.I. X&X X^.h.! M < < Y c.&X^.I.^.&X&X^.I.^.&X&XR.P.^.&X&X^.I.^.&X X^.I. X&X XI.^.&X&X^.I.P.J.D.r.~ [ ~.&X^.I.^.&X&X",
"I.I. X&X XI.:.v B B +.Y h.&X^.I.^.&X&X^.I.^.&X&X^.I.^.&X&X^.I.^.&X XI.I. X&X XI.^.&X&X^.I.I.J.v.B ;.0 H.&X^.I.^.&X&X",
" X X^.^.^.Q.%.#.1 y.c.^ 5.^.^. X X^.^./. X X^.^.^. X^.^.^. X X^.^.^. X X^.^.^. X X^.^.^. X XV.r.{ w.m 8.^. X X^.^.^.",
"&X&X^.I.^.OXm.( R C._ m.I.I.^.&X&XI.I. X&X XI.I.&X&X XI.^.&X&X^.I.^.&X&X^.I.^.&X&X^.I.^.&X&XP.z.{ ` 7 D P.&X&X XI.I.",
" X X^.^.^. XQ.) y.p.U C.^.^.^. X X^.^.^. X X^.^. X X^.^.^. X X^.^.^. X X^.^.^. X X^.^.^. X X^.c.[ 8.7 D W. X X^.^.^.",
"I.I. X&X XY.V.( c.w.@.I.&X&X^.I.^.&X&X^.I.^.&X&X^.I.^.&X&X^.I. X&X XI.I. X&X XI.I.&X&X^.I.^.&XV.e.r.8 n ~.^.I.^.&X&X",
"I.I. X&X X^.n.) d.! #.^. X&X^.I.^.&X&X^.I.^.&X&X^.I.^.&X&X^.I. X&X X^.^. X&X XI.^. X&X^.I.^.&Xl.N m C 0 D.^.I.^.&X&X",
"&X&X^.^.^.&XH.+.:.B D.&X^.^.^. X X^.^.^.&X X^.^. X&X^.^.^. X&X^.^.^.&X&X^.^.^.&X X^.I.^.&X X^.V.q.n b 5 e..X&X^.^.^.",
"&X&X^.I.^.OXr.:.y.! S.&X^.I.Q.`.OXI.I. X&X XI.I. X&X XI.^.&X&X^.I.^.&X&X^.I.^.&X&X^.I.^.&X&XI.C.0.! ] 9 g.&X&X XI.I.",
"^.^.^.^.^.Q.{ k.y.( i.^.R.^.Z.R.^.^.^.^.^.^.^.^.^.^.^.^.^.^.^.^.^.^.^.^.^.^.^.^.^.^.^.^.^.^.W.y.c w.y.b F./.^.^.^.^.",
"I.I. X&X.XI.d.z.@.R p.I. X&X^.I.A.OX&X^.I.^.&X&X^.I.^.&X&XI.I. X&X XI.I. X&X XI.I.&X&X^.I.R.J.z.C y.A.Z H.^.I.^.&X&X",
"^.^.^.&X X^.C.z.0.B 0.M.`.&X^.^.T.].$X^.^.^.&X X^.^.^.&X X^.^.^.&X X^.^. X&X X^.^. X&X^.^.Q.z.l.b m.A.A J.^.^.^.&X&X",
"&X&X^.I.^.&X'.%.^ u U p.^.P.n.`.&X^.I. X&X XI.^. X&X XI.^.&X&X^.I.^.&X&X^.P.^.&X&X^.I.^.&X Xk.^ ! F.g.g P..X&X XI.I.",
"&X&X^.I.^.&XOX_ N u R =.V.P.j.~.&XI.I. X&X XI.I. X&X XI.^.&X&X^.I.^.OX&X^.I.^.OX&X^.I.^.&X&XP.( #.`.=.Q I..X&X XI.I.",
"^.^.^. X X^.^.+.d R B #.0.m.^.^.^. X X^.^.^. X X^.^.^. X X^.^.^. X XR.T.Q.Q.E.C.R._.`.^.^.^.Q.0.:.R.B y..X^.^.^. X X",
"I.I. X&X&XI.I.$.a h B y.@.r.Q.I.I.&X&X^.I.^.&X&X^.I.^.&X&X^.I.^.&X Xz.7.b.E.D.V.A.].~.^.I.R.u.) m.k.< H.&X^.I.^.&X&X",
"^.^.^. X X^.^.n.I N h 7.B ( c.P.Q.T. X^.^.^. X X^.^.^. X X^.^.^. XQ.7.Z 9.c.F.R.Q. X].^.^.^.<.W +.@.^ _. X^.^.^. X X",
"&X&X^.I.^.&X&XR.+.U M ( = h z.J.].C.I. X&X XI.I. X&X XI.^.&X&X^.I.A.7.' r.z.x.D.!.Z.I.^.&X&XV.) y , y.Y.I. X&X XI.I.",
"&X&X^.I.^.&X&X^.P.( s B N 1 7.`.&X^.I. X&X XI.^. X&X XI.^.&X&X^.I.R.D.r.i.m.m.D.c.c.P.T.OXOXl.0.( 3 B.^.^. X&X XI.I.",
"^.^.^.&X X^.^. X&Xl.u u U ! R p.^. X&X^.^.^.&X XR.R.^.&X X^.^.^.OXQ.V.y.6.D.i.7.m.F.F.R.R.C.c.i.Y & u.W.&X^.^.^.&X&X",
"I.I. X&X XI.I. X&X].:.s u ! y.#.V.&X&X^.I.^.&X`.P.I.^.&X&XR.I. XOXE.m.d.=.7.! B y.m.J.J.C.y.r.! u & ,.m.&X^.I.^.&X&X",
"^.^.^.^.^.^.^.^.^.^.^.y.x M @.e.g.J./.^.^.^.^.R.C.Q.^.^.^.^.^.^.Q.^.Z.V.i.! ( M =.z.d.g.T T W I 1 U y.T./.^.^.^.^.^.",
"&X&X^.I.^.&X&X^.I.^.&X&Xd.y g R #.C.I. X&X XI.I.].`.Q.I.R.&X&XR.Z.Q.c.i._ R M i 7.) U R i.3. .o.M d.R.I.I. X&X XI.I.",
"&X&X^.^.^.&X&X^.^.^.&X&XA.x j I M 2.C.].&X X^.^. XT.Z.P.J. X&X^.^.^.D.i.] V R B ( N s U F.V.h.%.J.OX X^.^. X&X^.^.^.",
"I.I. X&X X^.^. X&X XI.^.Q.Y t x h ; #.R.^.^.&X&X^.I.Q.E.~.I.L.^.~.C.0.{ ] ( ! M r O @.>.C.M.z.y.A.Y.^.&X&X^.I.^.&X&X",
"I.I. X&X XI.I. X&X XI.I.&X#.- u #.B = Y j.Z.`.~.Q.U.^.].OX^.I.^.p.o.0.M g T _ M = j 0.a.2.P.F.'.^.I.^.&X&X^.I.^.&X&X",
" X X^.^.^. X X^.^.^. X X^.n.1 1 U #.h 1 : / Z.F.D.F.c.m.F.B.B.F.:.R -.N r B M B ) ) 0.y.B.^.Q.^.^. X X^.^. X X^.^.^.",
"&X&X^.I.^.&X&X^.I.^.&X&X^.I.u.u w U g h T Y j.0.T ] e.7.z.c.w.9.U y B T _ >.Y ( e.j.P.^.&XOXI.I. X&X XI.I.&X&X XI.I.",
" X X^.^.^. X X^.^.^. X X^.^.^.T.C.Z.c.=.! =.0.] 6.r.c.m.G.C.R 1 a / @.%.^ h #.V.T.^.^.^. X X^.^./. X X^.^. X X^.^.^.",
"I.I. X&X XI.I. X&X XI.^.&X&X^.I.^.&X&XT.h.q.=.] _ v ! f.e.R * 1 W @.Y Y M w.Q.U.^.&X&X^.I.^.&X&X^.I.^.&X&X^.I.^.&X&X",
"I.I. X&X X^.I. X&X XI.^.&X&X^.I.^.&X&X^.U.^.OX`.M.u.0.! B ^ _ 7.i.q.q.h.E.&X XI.^.&X&X^.I.^.&X&X^.I.^.&X&X^.I.^.&X&X",
" X X^.^.^. X X^.^.^. X X^.^.^.&X X^.^. X&X X^.^..X&X(.I.T. X&X/.^.^.&X&X^.^.^. X X^.^.^.&X X^.^.^. X X^.^. X&X^.^.^.",
"&X&X^.I.^.&X&X^.I.^.&X&X^.I.^.&X&XI.I. X&X XI.I. X&X XI.^.&X&X^.I.^.&X&X^.I.^.&X&X^.I.^.&X&XI.I. X&X XI.I. X&X XI.I.",
"^.^.^.^.^.^.^.^.^.^.^.^.^.^.^.^.^.^.^.^.^.^.^.^.^.^.^.^.^.^.^.^.^.^.^.^.^.^.^.^.^.^.^.^.^.^.^.^.^.^.^.^.^.^.^.^.^.^.",
"I.I. X&X XI.I. X&X XI.I.&X&X^.I.^.&X&X^.I.^.&X&X^.I.^.&X&X^.I. X&X XI.I. X&X XI.I.&X&X^.I.^.&X&X^.I.^.&X&X^.I.^.&X&X",
"                                                                                                                    ",
"                                                                                                                    ",
"                                                                                                                    "
};
