/* XPM */
static char *a597cbd26c384b2ff877d8241361c385GdacRp15NkYtCD7v[] = {
/* columns rows colors chars-per-pixel */
"58 58 226 2 ",
"   c None",
".  c #250105",
"X  c #4B1205",
"o  c #7F0000",
"O  c #69140A",
"+  c #7A2E10",
"@  c #820000",
"#  c #8C0305",
"$  c #8D0A03",
"%  c #910507",
"&  c #940509",
"*  c #99070B",
"=  c #9C090D",
"-  c #950D07",
";  c #911A0C",
":  c #A10A0F",
">  c #A40B11",
",  c #AC0D15",
"<  c #B10F17",
"1  c #B20F18",
"2  c #B80F1A",
"3  c #A61A14",
"4  c #B51119",
"5  c #BB121C",
"6  c #B31C14",
"7  c #A2120B",
"8  c #CD0309",
"9  c #CF0A0B",
"0  c #D10E0E",
"q  c #CD1A0D",
"w  c #D41B0D",
"e  c #C1141F",
"r  c #CA191B",
"t  c #D11A16",
"y  c #D31B1C",
"u  c #D01217",
"i  c #E31A08",
"p  c #D4240D",
"a  c #D62B09",
"s  c #DB2D0D",
"d  c #DC330A",
"f  c #DA360B",
"g  c #D42211",
"h  c #DC2C13",
"j  c #DA2B1B",
"k  c #C23215",
"l  c #CA3916",
"z  c #DE3214",
"x  c #D7391E",
"c  c #C63217",
"v  c #E6280A",
"b  c #E13C0A",
"n  c #EA370D",
"m  c #E22D1A",
"M  c #E33615",
"N  c #E63B14",
"B  c #E3341A",
"V  c #EA3910",
"C  c #C41521",
"Z  c #CB1724",
"A  c #CE1825",
"S  c #D41A24",
"D  c #D81C26",
"F  c #D51A29",
"G  c #DB1C2C",
"H  c #DD2325",
"J  c #DF2924",
"K  c #DD2129",
"L  c #DE2929",
"P  c #D42624",
"I  c #DC3425",
"U  c #DF3D22",
"Y  c #D02A2D",
"T  c #E12B21",
"R  c #E02C29",
"E  c #E33527",
"W  c #E53C24",
"Q  c #E33228",
"!  c #E0392B",
"~  c #924319",
"^  c #B1631D",
"/  c #904526",
"(  c #B76623",
")  c #DA5217",
"_  c #E5420B",
"`  c #E9460B",
"'  c #EA480A",
"]  c #EA490A",
"[  c #E74F0F",
"{  c #EE540D",
"}  c #EF590F",
"|  c #F05B0F",
" . c #E74211",
".. c #EF4A10",
"X. c #E64511",
"o. c #EC5817",
"O. c #F05413",
"+. c #F25D13",
"@. c #F15E1D",
"#. c #EE6414",
"$. c #F36312",
"%. c #F46B14",
"&. c #F2631E",
"*. c #F46C1C",
"=. c #F67216",
"-. c #F87616",
";. c #F97917",
":. c #F6721B",
">. c #F8751A",
",. c #FB7E19",
"<. c #FA7D19",
"1. c #F77818",
"2. c #DB4929",
"3. c #D0433B",
"4. c #EB4D23",
"5. c #EA4724",
"6. c #EC5321",
"7. c #EE5922",
"8. c #EE5C28",
"9. c #F05D20",
"0. c #F06623",
"q. c #F16A28",
"w. c #F47525",
"e. c #E87538",
"r. c #F27936",
"t. c #ED682F",
"y. c #C06F4D",
"u. c #DE7658",
"i. c #F47548",
"p. c #ED6F4E",
"a. c #E36E6F",
"s. c #FB8019",
"d. c #FB8219",
"f. c #FB8119",
"g. c #FC8A1F",
"h. c #FB8C22",
"j. c #F6892B",
"k. c #FB9C2B",
"l. c #FB9325",
"z. c #F4863A",
"x. c #F69333",
"c. c #F79C3B",
"v. c #EC8D38",
"b. c #FBA12E",
"n. c #FBA431",
"m. c #FCAC36",
"M. c #F9AD3C",
"N. c #FCB53C",
"B. c #FCBA3F",
"V. c #E6B13D",
"C. c #D69A48",
"Z. c #EB8C47",
"A. c #F49A4C",
"S. c #F79849",
"D. c #EB8757",
"F. c #F58C56",
"G. c #EE9052",
"H. c #F69451",
"J. c #DFAF58",
"K. c #E8AB42",
"L. c #FBAC42",
"P. c #F5A645",
"I. c #FCBE41",
"U. c #F8B548",
"Y. c #F9AB55",
"T. c #F8B355",
"R. c #EEAE57",
"E. c #D48B6C",
"W. c #EC8A71",
"Q. c #F8A775",
"!. c #F0BA6C",
"~. c #FCC345",
"^. c #FAC549",
"/. c #FCCC4B",
"(. c #F6CA4F",
"). c #FCD24F",
"_. c #F6D04E",
"`. c #FBC55D",
"'. c #FBD651",
"]. c #FCDC55",
"[. c #FCDE5A",
"{. c #EEC34D",
"}. c #FCE15F",
"|. c #FDD862",
" X c #FACA75",
".X c #FDE26A",
"XX c #FDE370",
"oX c #FDE37C",
"OX c #FEE974",
"+X c #E68889",
"@X c #F19D91",
"#X c #F7A28F",
"$X c #F5A694",
"%X c #F6B59B",
"&X c #EDA599",
"*X c #EFADA7",
"=X c #F5B5A6",
"-X c #F7BDB3",
";X c #EDBDAF",
":X c #F7DF88",
">X c #EFD888",
",X c #FDE985",
"<X c #FBE99B",
"1X c #FFF699",
"2X c #DDCBBA",
"3X c #FED8A6",
"4X c #E2CBBB",
"5X c #F6C4B7",
"6X c #FFFBA5",
"7X c #FFFEAE",
"8X c #FBF3A2",
"9X c #FFFFB1",
"0X c #FDEDBD",
"qX c #F5CBC6",
"wX c #E6D4C8",
"eX c #F8D6D4",
"rX c #F4D6D0",
"tX c #FEF4C7",
"yX c #F9E5D9",
"uX c #FFE6CA",
"iX c #FCEBEB",
"pX c #F9EBE7",
"aX c #FBF6E9",
"sX c #FDF4F1",
"dX c #FEFDFD",
"fX c #FFFCF1",
/* pixels */
"                                                                                                                    ",
"                        @ @ @                                                                                       ",
"                        @ @ @ @                                                                                     ",
"                  @ @   @ @ # = # @                                                                                 ",
"                  # & @ @ # # > 5 = # @                   @                                                         ",
"                  # 5 # @ @ , 4 F F C , & @ @           @ # @                                                       ",
"                  # Z 4 @ @ < G G G G G F 5 & @         @ 1 & @                                                     ",
"                  @ 5 G 5 = e G G G G G G G A = @       @ 1 C # @                                                   ",
"                  @ = F G F G G G G G G G G G A & @       % A C # @                                                 ",
"                    @ 5 G G G G G G G G G G G G e #       @ > G C & @ @                                             ",
"                    @ & A G G G G G F D G G G G F = @       # A G Z < > % @ @                                       ",
"                      @ : F G G G G S q t S G G G 5 @       # A H g t y Z 5 * @ @                                   ",
"                        @ , F G G G G S q q t F G F & @   @ , G H b a a w t D 5 # @                                 ",
"                          @ 4 G G G G G y q p t F G , @ # < F G G B d d b a q y C & @                               ",
"                            # C G G G G G t s h t G A 5 Z G G G G H b a [ ' b p t e & @                             ",
"                            @ & S G G G G D p _ d y D G G G J B H K _ d #.| ] ] d g 5 # @                           ",
"                              @ 1 G G G G K g b ] M y D G G T ' _ B _ d %.-.$.%.{ _ z 5 #                           ",
"                              @ & F G G G G h d ] ] N H G G B ] { %.| f %.s.-.,.=.+.>.W 1 @                         ",
"  @ @ @ @                   @ # @ C G G G K J s ' ] ] _ M N ` ] ] %.;.[ >.s.,.s.,.;.s.:.I < @ @                     ",
"@ @ # # = # @               @ > : 5 G G G m B d ' ] ] ] } $.%.%.$.$.-.#.,.s.s.s.s.,.-.-.@.L 2 # @                   ",
"  @ & e F 5 # @             @ : S S G J G B ` b ` ] ] ] { $.$.-.,.,.,.,.s.s.s.-.O.n V 7.r.r.p.3.3 # @               ",
"    @ > F G e # @ o o         % S G G B N _ ] _ ' ] ] ' ] =.+.{ ;.s.s.s.s.s.;.n i v V @.0.r.S.Y.G.Y > # @           ",
"      @ e G G C : : = # @ @   @ 4 G G B ] ] ] ' ' ] { +.{ %.,.-.,.s.s.s.s.s.O.v O.-.,.h.k.=.+.7.t.! L C > # @       ",
"      @ > F G G F G F A 4 & @ @ = F G M | { ' ] ] ] { ;.,.;.s.s.s.s.s.s.s.,...$.k.k.s.I.L.*.d w 0 e.8.G F C &       ",
"        # Z G G G G G G G A = # C G G B $.=.{ ' ] ] ] $.s.s.s.s.s.s.s.,.s.;.$.,.n.~.b.^.2.p 8 8 I T.w.R K F = o     ",
"        @ 4 G G G G G G G G S r G G G m } ,.-.| ] ' ' | ,.s.s.s.s.s.k.k.g.h.k.s.B.]./.v.0 S S u Z.L.:.6.Q L : o     ",
"        @ * F G G G G G D G G B B K G T ] -.s.,.%.{ ] | ,.s.s.s.s.,.h.~.I.m./.m.).].'.2.+XeXrX%X`.h.,.;.4.4.> @     ",
"          # C G G G G G t y G N ] _ N  .] $.s.s.s.,.%.=.s.s.s.s.g.d.,.b.].'.].].].].U.3.*XyXdXfXY.k.l.,.*.*.6 @     ",
"          @ > F G G G G S q D B ] ] ] ] { +.-.s.s.s.s.s.s.s.,.,.n.I.N.m.'.].].].].].P.7 ~ y.eXsXS.~.N.h.g.,.k @     ",
"            @ 5 G G G G G q q z ' ' ] ' ] $.,.s.s.s.s.s.;.+...+.f.~.].'.].].].].].].K.O . O &XuXU.'.].^.h.f.l @     ",
"            @ # C G G G K s a a d s d _ [ +.,.s.s.s.s.%.n v +.,.s.b.'.].].].].].].].(.~ X ^ 3X:X'.].].'.k.f.l @     ",
"              @ # 4 G H K s b +.a f #.-.,.,.s.s.s.s.%.6.v +.h.N.~.^.].].].].]._.V.{.'.U.R. XoX].].].].].m.,.k @     ",
"                @ * H N H z b -.-.1.f.s.s.s.s.s.s.=.q.z.O.,.h.B.].].].].].].].K.C.J.{.|.,XXX].'.~.'.].'.k.-.6 @     ",
"                  * D  .B z f =.f.s.s.s.s.s.s.s.,.O.S.r.=.s.,.g.I.].].].].].OX!.>X7X8X,X].].'.x.j.].]./.h.@.= o     ",
"                  & F N ' N b $.s.s.s.s.s.s.s.s.=.8.Y.*.,.s.h.j.e.e.Z.U.'.[.1X>X<X7X7X6X.X'.Y.i.c.].].N.<.I #       ",
"                  # Z B ] ' _ { ;.s.s.s.s.s.s.s.+.z.S.-.O.h 2.u.a.W.*X=X X}.6X7X7X7X7X7XXXc.5XeXU.].'.k.&.4 @       ",
"                  @ 5 T ' ] { $.,.s.s.s.s.s.s.s.O.A.j.>.s u &X+X3 / E.iXaXoX1X7X7X7X9X6XT.#XsXqXP.].B.<.I & @       ",
"                  @ * H  .] ] ] $.,.s.s.s.,.,.,.@.P.:.s 8 a.sX3.X . ; -XfXoXOX7X7X<X!.Q.%XyXwX$XL.).l.6.5 @         ",
"                    @ 5 B ] ] ] ] $.,.s.s.s.s.,.0.z.>.w u qXdXu.+ X ( 3X,X].].`.F.i.#XeXrX2X5Xi.^.m.*.P & @         ",
"                    @ # Z N ] ] ] { $.;.s.s.s.,.q.w.X.8 Y iXdXyX!.K.`.|.].^.j.i.$XpXpX2X4X5Xi.M.B.f.W , @           ",
"                      @ & r N ' { -.;.,.s.s.s.s.0.h 0 j D.0XtXtX<XXX[./.P.F.=XiXpXwX2XwX#Xt.M.~.h.7.5 @             ",
"                        @ # 5 j  .$.s.s.s.s.s.g.w.t.A.T.U.).].].].^.x.F.-XiXdXwX4X;X#Xi.j.^.~.h.*.P # @             ",
"                          @ @ > S Q :.s.s.s.g.L.`.|.U.h.s.k.^.].].^.x.H.Q.Q.W.D.F.Z.c.^.'.N.g.,.x & @               ",
"                              @ , G E :.s.s.s.h.h.h.s.g.n.~.'.].].].].'.)./.^./.'.].]./.b.s.,.) * @                 ",
"                  @ @ @       @ = G G Q 9.;.s.s.,.,.s.h.h.h.k.B.).].].].].].].].].^.m.h.f.,.) - @                   ",
"                  @ # & @ @ @ # 5 G G G L &.s.s.s.s.s.s.,.,.,.s.l.m.~./././.~.N.b.g.f.,.*.l $ @                     ",
"                    @ , 5 , , C F G G G 6.;.,.s.s.s.s.s.s.s.s.s.s.s.d.h.h.h.<.:.*.&.o.k 7 @                         ",
"                      @ < F G G G G G K 5.9.;.s.s.s.s.s.s.s.s.s.;.*.7.5.W Q L P e , & @ @                           ",
"                        @ > Z G G G G G R @.;.s.s.s.s.f.,.>.&.4.E K F Z e , = # @ @                                 ",
"                          @ # > C A F G G K E 4.9.&.@.6.U P Z 5 1 > * # @ @ @                                       ",
"                              @ @ # * > , , , , , > = * & # @ @ @ @                                                 ",
"                                    o @ @ @ @ @ @ @ o                                                               ",
"                                                                                                                    ",
"                                                                                                                    ",
"                                                                                                                    ",
"                                                                                                                    ",
"                                                                                                                    ",
"                                                                                                                    "
};
