/* XPM */
static char *_6612f8389ac4bd892ce75966052d848Tk4npxMUcUlE3wc5[] = {
/* columns rows colors chars-per-pixel */
"58 58 36 1 ",
"  c black",
". c #010000",
"X c #000100",
"o c #010101",
"O c #000201",
"+ c #000102",
"@ c #000103",
"# c #010103",
"$ c #000302",
"% c #010302",
"& c #000203",
"* c #020202",
"= c gray1",
"- c #000403",
"; c #020403",
": c #010204",
"> c #000304",
", c #020204",
"< c #020305",
"1 c #000404",
"2 c #010504",
"3 c #000405",
"4 c #000505",
"5 c #030504",
"6 c #020605",
"7 c #010506",
"8 c #000606",
"9 c #000706",
"0 c #010707",
"q c #020607",
"w c #040605",
"e c #030708",
"r c #000908",
"t c #020808",
"y c #030909",
"u c #040809",
/* pixels */
"                                                          ",
"                                                          ",
"                                                          ",
"                                                          ",
"                                                          ",
"                                                          ",
"                                                          ",
"                                                          ",
"                                                          ",
"                                                          ",
"                                                          ",
"                                                          ",
";   ;33333wwwwww3333333333333333wwwwwwww3333333333333333;;",
"3> >33t333333ueettttttttttttttttuuuuuuuu333333333333000033",
"3>  3ee333333333tttttttttttttttteeeeueuu333333ee3333333333",
"33 >33e3333333uetttttttttttttttteeeeeeuu3333333e3333000033",
"3> >3e3333ee3333tttttttttttttttteeeeeeee3333eeee33333333>>",
"3> >3ee333ee3333tttttttttttttttteeeeeeee3333eeee33333333>>",
"3>>>3e3333ee3333tttttttttttttttteeeeeeee3333333333333333>>",
"33333e3333ee333ett3ttttttttttttteeeeeeeee333333333333333>>",
"33>333333333eeeet330tttttttttttteeeeeeeeee33333333333333>>",
"333333333333eeeet333ttt0tttttttteeeeeeeeee33333333333333>>",
"3333333e33eeee33t333tttttttttttteeeeeeeeeee3333333333333>>",
"3333333333333333t333tttttttttttteeeeeeeeeee3333333333333>>",
">>>3333333333333t333ttt0330ttttt33333e3333333333tt3333333>",
">>>3333333333333t333ttt03303tttt33333e3e33333333t333333333",
">>>>333333333333t033ttt0333333003333eeee333333333333333333",
">>>>3333333333330033ttt033333330000ttttt33333333;;;;;;;;;;",
">>>>>>3333333333tt30000000003333tttt333333333333 ;;;;   ;;",
">>>>>>>>33333333333303t0003033033333333333333333 ;;;;   ;;",
">>>>>>>>333333333333303303tttt0t3333333333333333  ;;;;  ;;",
">>>>>>>>3333333333333330333333333333333333333>>>  ;;;     ",
">>>>>>>>>>>33333333333ee333333333333333333333>>>;;;   ;;  ",
">>>>>>>>>>>33333333333e3333333333333333333333>>>;;    ;;  ",
">>>>>>>>>>>>>>>>3333333333333333333333333333>>>>;;;;   ;  ",
"                3333333333333333333333333333>>>>;;;;   ;  ",
"     ;;;        33333333333333333333333333>>>>>>          ",
"      ;;   ;  ; 33333333333333333333>>>>>>>>>>>>          ",
"     ;;;     ;;;>>>>>>>>>>>>>>>>3333>>>>>>>>>>>>          ",
"    ;;;;     ;;;>>>>>>>>>>>>>>>>3333>>>>>>>>>>>>          ",
"                >>>>>>>>>>>>>>>>33>>33>>>>>>>>>>          ",
"                >>>>>>>>>>>>>>>>3>>>33>>    >>>>          ",
"               w>>>>>>>>>>>>>>>>>3>>>>>>      >>          ",
"                                ;;                        ",
"                                                          ",
"                                                          ",
"                                                          ",
"                                                          ",
"                                                          ",
"                                                          ",
"                                                          ",
"                                                          ",
"                                                          ",
"                                                          ",
"                                                          ",
"                                                          ",
"                                                          ",
"                                                          "
};
