/* XPM */
static char *_b2cde3bb83a451ede2012a415fb12ddq6Xs6XSO3CnqME83[] = {
/* columns rows colors chars-per-pixel */
"58 58 249 2 ",
"   c black",
".  c #0A0D17",
"X  c #030C1B",
"o  c #0B0D1B",
"O  c #060619",
"+  c #140C1B",
"@  c #1B0E18",
"#  c #04131C",
"$  c #0C141C",
"%  c #0D191C",
"&  c #0C1316",
"*  c #141516",
"=  c #1A1515",
"-  c #1B1917",
";  c #13141B",
":  c #1D141B",
">  c #141B1C",
",  c #1C1C1B",
"<  c #270C19",
"1  c #23151B",
"2  c #29141A",
"3  c #221D1C",
"4  c #2C1B1C",
"5  c #2A1616",
"6  c #341B1C",
"7  c #3A1818",
"8  c #320D1A",
"9  c #1E211E",
"0  c #23211E",
"q  c #33231C",
"w  c #3C231A",
"e  c #39271A",
"r  c #0B0C21",
"t  c #050E25",
"y  c #0D1221",
"u  c #061923",
"i  c #141522",
"p  c #1C1523",
"a  c #141B22",
"s  c #1C1C23",
"d  c #141A29",
"f  c #1B1C29",
"g  c #151329",
"h  c #11142E",
"j  c #231522",
"k  c #211D22",
"l  c #2C1B23",
"z  c #2B1827",
"x  c #341A22",
"c  c #3C1D22",
"v  c #361522",
"b  c #270C25",
"n  c #0F2224",
"m  c #1C2223",
"M  c #1D232B",
"N  c #142327",
"B  c #1B2334",
"V  c #252323",
"C  c #2A2625",
"Z  c #252926",
"A  c #2B2926",
"S  c #22242B",
"D  c #2B252B",
"F  c #252A2B",
"G  c #2D2B29",
"H  c #342323",
"J  c #312A26",
"K  c #322E2C",
"L  c #382527",
"P  c #2B312E",
"I  c #34302E",
"U  c #38312E",
"Y  c #242A31",
"T  c #2B2C32",
"R  c #252630",
"E  c #2A3133",
"W  c #363231",
"Q  c #3A3534",
"!  c #3D3936",
"~  c #3D3939",
"^  c #353936",
"/  c #362830",
"(  c #421B19",
")  c #4B1D1B",
"_  c #491815",
"`  c #591813",
"'  c #490C14",
"]  c #631D12",
"[  c #651C15",
"{  c #791F14",
"}  c #4C2215",
"|  c #4B221B",
" . c #432618",
".. c #552D1B",
"X. c #5D2C1A",
"o. c #572618",
"O. c #5A331A",
"+. c #57371A",
"@. c #4F3716",
"#. c #642A14",
"$. c #642C1C",
"%. c #692619",
"&. c #7B2616",
"*. c #663618",
"=. c #793818",
"-. c #511D22",
";. c #4C2624",
":. c #452726",
">. c #542A22",
",. c #493425",
"<. c #563422",
"1. c #423B36",
"2. c #413C3A",
"3. c #672C22",
"4. c #653423",
"5. c #7C3A20",
"6. c #58481C",
"7. c #664514",
"8. c #78471A",
"9. c #7F571A",
"0. c #6E4322",
"q. c #862A17",
"w. c #962E13",
"e. c #8E3215",
"r. c #863918",
"t. c #973714",
"y. c #8F2C0F",
"u. c #A3280E",
"i. c #A73E15",
"p. c #B0340F",
"a. c #853E20",
"s. c #CC340E",
"d. c #CD330C",
"f. c #994A0E",
"g. c #995A0F",
"h. c #854316",
"j. c #85421D",
"k. c #8A491A",
"l. c #974916",
"z. c #895514",
"x. c #985619",
"c. c #8F570F",
"v. c #B65A0E",
"b. c #A74B14",
"n. c #B44412",
"m. c #B94914",
"M. c #AD5914",
"N. c #A65717",
"B. c #B35B13",
"V. c #BA5514",
"C. c #B24A0F",
"Z. c #886213",
"A. c #9B6419",
"S. c #B6650F",
"D. c #A76816",
"F. c #B46412",
"G. c #BB6313",
"H. c #B76915",
"J. c #A67713",
"K. c #BA7214",
"L. c #B5760D",
"P. c #D64C0D",
"I. c #C7590D",
"U. c #CA5411",
"Y. c #C45A14",
"T. c #D45A11",
"R. c #CE500F",
"E. c #F94609",
"W. c #E65D10",
"Q. c #EE590E",
"!. c #C66B0D",
"~. c #DD620D",
"^. c #DB6B0E",
"/. c #D3620D",
"(. c #CA790C",
"). c #D7790E",
"_. c #C36312",
"`. c #CB6311",
"'. c #C56C12",
"]. c #CA6C15",
"[. c #D36212",
"{. c #D56A11",
"}. c #C57712",
"|. c #D97413",
" X c #E6600D",
".X c #EA640F",
"XX c #F76B0D",
"oX c #E8790D",
"OX c #F37C0E",
"+X c #FD7C0C",
"@X c #F7710D",
"#X c #E36712",
"$X c #F26D11",
"%X c #E67A11",
"&X c #F67511",
"*X c #AD8513",
"=X c #C78A0D",
"-X c #DA840D",
";X c #D4930C",
":X c #C98911",
">X c #D68712",
",X c #C39311",
"<X c #EB840D",
"1X c #E48A0D",
"2X c #EC8C0C",
"3X c #E3850E",
"4X c #F3830C",
"5X c #FD850D",
"6X c #FE8B0D",
"7X c #F68B0B",
"8X c #EB930D",
"9X c #E79A0B",
"0X c #FF9E07",
"qX c #F5940C",
"wX c #FE920C",
"eX c #FE9C0B",
"rX c #F89A09",
"tX c #E78911",
"yX c #F98C10",
"uX c #FF9A11",
"iX c #E19212",
"pX c #DDA411",
"aX c #DDAA09",
"sX c #E9A70B",
"dX c #FEAD07",
"fX c #F5A40C",
"gX c #FEA40A",
"hX c #FEAC0A",
"jX c #FBA607",
"kX c #FFB406",
"lX c #FFB40A",
"zX c #FEBC0A",
"xX c #FBB808",
"cX c #EBB20B",
"vX c #FFC306",
"bX c #FFCB06",
"nX c #FEC509",
"mX c #FECC0A",
"MX c #F6CA09",
"NX c #FFD306",
"BX c #FDDB06",
"VX c #FED309",
"CX c #FFDB09",
"ZX c #F5D708",
"AX c #FDE206",
"SX c #FEED05",
"DX c #FAE709",
"FX c #FFF205",
"GX c #FDFD05",
/* pixels */
"                                                                                                                    ",
"                                                                                                                    ",
"                                                                                                                    ",
"                                                                                                                    ",
"                                                                                                                    ",
"K C C G G A m ] E.hXNXP.V K K K C C C G K I G C V , : P.nXXX;.G A C C K K K V > w 6X..> K W K C G K K V 1 1XvX=.s A ",
"K C G K C V C > u.6XzXy.% A Q Q W K I Q Q W I G C 3 $ f.lX+X>.F C A K Q W K 0 ; @.OX4 A Q ! W Q Q W Q m o.gXR.k G 0 ",
"A K Q Q K C C 9 2 -XwX_ > V Q Q W W ! Q I W W K V 3 > } eX_.G , V W Q Q W C 3 ; *.`.i Q W W Q Q W I I ; N.5X) F G C ",
"C K Q W K G V 3 o F.~.; , C I Q W Q ~ W W Q W G , - o g.5X:., 3 K Q Q W W A 3 X =.f.a Q W Q Q I W K 0 : 4XM.a 0 W Q ",
"C K W K I I W V 4 XXt.$ 0 K Q I W Q W W W W G V = & 7.eX3.m V W Q Q W W W m : *.OXX.F ! Q Q K I I V # #.wXr.a 3 I K ",
"C K W C W K G G 1 <X_.; V G Q I W W I W W K C , * 7 eXV.S A W Q G K G G V ] {.hXv.3 W Q W W I I > : r.eXnXXX) > C C ",
"C G I V C W W J o J.gX7 Z A W W K K W K G 3 , 3 > U.gXU.A C Q K G K V , e @XlXb.o 0 K W W W G i ) ).NXfXOXbX[.4 G K ",
"A A K A V K W 0 @ ).4X4 Z A K W K V K W G V V A 3 ~.bX@Xc > A G K m , # =.lXdXu.> K K K W V 2 b.0XfXl.v o.gXvX| m J ",
"C C K V V W A > o.+X=.% A C G W W A V I G C C A l ~.NXNX*.p 1 2 2 2 4 2 `.eXU.w A W K I V 6 %XvXl.l S G > $.fXO.o a ",
"C C K k K Q 9 $ U.$X3 , C A I W I G , , V C V V z OXqXqXwX4XfX2XcXgXyX8XhXd.2 > G K K A > ( nX<Xz K ! A C i K.lXF.#.",
"C C V 3 m a 1 i.6Xj.M K G I I G C V = = = C V p M.|.L :.4.k.l.cXMXA.Y.vXeXd.; 3 V C A C , 7 5X@X6 G Q A C l pXFXzXdX",
"A C = > } q.[.zXzXn.; C A C C C A 0 $ & & $ e ^.OXL m A S S h }.A.h D V.vXlXe.$ , 3 , > # 8 rXdX| > U 0 > H eX].&.0.",
"m , % ( E.eXVXCXAXNX=.# m A K J m , &.h.O.=.eX4X;.F K W K J S H.x.D ! T V.0XwXB.; ; 1 | h./.dXFX<X-.M > c Y.$Xl n > ",
"q.4 ( T.lXeX Xf.z.9X@Xt.| l S a 7 s.5XmXeX|.j.L V K K K W J M N.k.M Q ^ K 3.<.2X).B.#X5X'.8.o.}.NX&X3.t.fXlX=.N A 0 ",
"6X%XeXzX X] < . i z r.6XeX~.i.e.E.wXmX%X..S M C K W G K W K S 8.F.N K I W F F D ].bXzXN.B Y u ( BXDXeXvXbXT.k A I G ",
"2XdXwXE.` u A I I V # w.eXzXlXhXzXBXzXW.3 A A K K W I G W W W V [.4.F K G G I F ;.gX&XH m L w /.(.sXfX_.l.:.V K K 3 ",
":.;.[ %.V K Q I W I , = ] =.r.U.+XzXuXp., A W I G Q ! A K W ! Y 8.#XD K A C A S 8.NX=.t e.qXdXV.r U.=.y m Z A W C , ",
"A G P F Q W K A W G G C a m a : p.gXgX) > A K A I ~ ~ I A W ! Q f {.l.E A A I F ..vX>XY.wXz. .T ,.T.V C A A G I V , ",
", C I Q Q W K K W G K Q K I A V a e.gX#.> 3 V G W Q ! ! A K ~ ! N 8.].R A I K G p aX;XK.vX;.Y B l.k.M A G K W W K 3 ",
", C K W Q W Q Q Q W W W W W W A V 4 +Xp.> 3 0 K W W Q ! A A ~ ! i F.D.M I G C m *.V.t e '.M z x.<XH V V V V K W K 3 ",
"> A C C K W Q I K Q Q Q Q W K 3 > %.wXoX< > A V V F K V , 0 K A 1 5Xk.Y I A A i M.$.y V.m.%.).SXK.g 0 , , 3 3 V G C ",
"] > A , V A K G K W W I W G V - $ n.hXVX_.w 3 H q L k > 3 , 9 # *.wX,.F K A 0 3 cX-X'.zXVXkXiX,XdXG.p > > % ; , 0 V ",
"+Xw.p a m V V C A G A K I 3 = $ | &XlXBXbX^.m.B.F.V.F.1 $ : 7 *.[.lXa.f V 3 # X.DXzXhXdXwXM.z j ,.M.[.e ( =.Y.p.> > ",
"pXlX'.4.X.o.( s Z A V A A m a &.Q.gXAXlXl.3 4 3 0 i H.1XM.^.rXdXgXBXlXF.l 6 r.9XvX4.;.*.%.f G ! T d A.lXgXzXzXwXr.7 ",
"L 8.%XdXhXeXwXn.j p j j j c G.hXVXhXhXC.a V , , 3 * 4 ).hXgXvXMXlXBXAXVXtXtXdXdXj.Y W Y m C I ~ ! ! g J.FXDXAXVXwX5X",
"A m p K.GXGXhXwXrX!.-X1X2XhXNXDXGXkXs.V A G V V V , , : l H =.eXxX`.k.9.qXBXVXR.f F U ! 2.W W W Q 2.D ,XNXeXOXvXAXCX",
"G 3 > ;.bXsXo.q *XjXsX:XD.8.x.gXSX8Xx Z G A A V V A A V 0 >  .rX>.M T a x B.kX6XR.o.V G Q ~ G K 1.D 6.FXgXe.6 2XnXDX",
"V C i z.|.@ ; Z g x z i $ a f X.oXdX;.s V A A V A G A G A , q rX<.F 1.C P S $.oXlX+Xw.V ! Q K I A X B.lXk.> % $.eXvX",
"A s r 2XA.X V W V V V G I C 0 $ 7 eXM.i V A V V C A A A A A ; 1Xk.Y Q A 2.K n -.dXkXu.n K W U M : l.hX6X| m K , $.x.",
"p @.(.|.w m V W C V V C C V V - 1 8XK.i V A V V V A A A A m 6 hXD.M A A G V , 4 <XgXV.>.:.D f #.~.mXzXgX..S Q G m i ",
"}.NXB.k m V V G A C V V V V V - y |.8.$ V V V V V A A A 9 2 1XhXw m V V V V 0 . }.VXzXlXvX9X_.6XmXVX6Xt., G W I K 0 ",
"VX8Xz ^ K k V V V V V V V 3 0 a =.W.6 , V V V V A A A V 3 `.zX=.i C k V V V , = cXI. .7.c.L.rXzXCXgXr.i A W K K K 0 ",
"zX^.D A V V V V V V V , ; & i 8.AX}.i 3 V V A A A A A , 7 gXiX@ 0 V V V V V o 8.$X2 M S i O r.vXyX*.a I Q I G G V , ",
"bX_.; - V V V V C 0 p 6 ;.O.N.gXvXzX%.% > p f V A A 9 $ b fXMX< 9 V C C 0 > ; 2Xf.y U Q 1.F o.gX].; C K G A A 0 , i ",
"nX Xx , , 3 V V 3 i b.eXlXdXoX_ ' 9X2Xv L D.z.z i i x 8.3X|.cXc.+ $ o O + 4 k.mXf.$ K W Q K : B.lX3.m C I A 0 i <.x.",
"nXhXm.s , > & > $ x.eXg.8.#.@ m # } gXiXgXNXzXqXr.M.hXdXD.: q =X8Xh.8.L.sXdXnX9X< Z Q Q Q K a &.zXY.f N Y F d +.BXBX",
"hXMX+Xe.6 | | | k.wX&.y ; i G A : !.SXnX!.+.<.(.0XvX-X| y K W f Z.3X,XJ.Z.+.>X2X+ A I Q K Z ( 5XSXnXN.x.=.3.5.gX<Xj.",
" XzXzXuX&XeXeXwXgXb.F 2.A K 2.m #.zX3X` ; F G p 8.3X< F C G G W R ; o O O . ; F.C.; i i i + `.NXvX;XY.f.4XdXlXM.1 M ",
"5 [.lXnXVXSXBXvX+X8 a s S K A $ 7 eX#.# Q ! Q V ; %X .# , V V V C V V V V 3 , ; h.^.z.z.g.=XnXN.>./ T d +.nX{.+ Z A ",
"& = I./.n.6XnXMXlXY.v.I.%.o @ } F.eX .F 2.Q V , o D.>X..6 : V G V V V C V V A A $ O.dXzX>X*X8Xx.h T Y Y 4.hXqXc C K ",
"V s : 1 $ ' P.6X6X5XeXCXNXG.-XzXvX~.6 W 2.G V G = ; 7.oXrX`.w ^ C 3 V V V V C A V ; 3Xl.X r <.gXK.z.9.N.dX(.|.wXb.d ",
"K Q W K K > = _ 7 5 _ +XSXCX6Xh.( 1 Z Q G V V V V , & @ -XBXX.T I A V C V V A A V : 8Xx.$ A S =.D.fX;X*.,.j + !.6X8.",
"K Q ! Q W I V a V V ; /.nX5X{ X > m V V V A G G A V 3 ; _.zX%.N Q W k C V V C A , 3 oXO.s V A N t 1X_ u ~ ! A @ =.S.",
"G Q W Q Q W W Q K J $ f.gXy.& = C K V V W G V V V V A ; C.lXH.) 3 C V V A V C 0 o !.N.y C V m H N.gX5 K Q I Q G i o ",
"G K I W W K G G A m < .X|.: C G A V V K C V V V V A A , 2 h.gXbXl.; 0 V A V , $ G.{.k V C i 8.%Xv.o.s W I Q ! Q Q 0 ",
"C C A G A C A A 9 = U.zX~.l V , V V A V V V , 3 V V 3 3 , + T.AX7X8 , C V * ; B.G.f V A , e 5X} # S W W Q Q Q Q K , ",
"C C V 3 3 0 V 0 . M.mXZXzX*.. = * , , = , = = , 3 3 3 3 3 : `.VXkXq.> 3 , ; f.V.f C 0 3 $ H.v.y J K K K K V G K C V ",
"                                                                                                                    ",
"                                                                                                                    ",
"                                                                                                                    ",
"                                                                                                                    ",
"                                                                                                                    ",
"                                                                                                                    "
};
