/* XPM */
static char *cc83bce407594f02d4cc8febfbf01397bFPIqjgmRLfJ1tg8[] = {
/* columns rows colors chars-per-pixel */
"58 58 168 2 ",
"   c black",
".  c black",
"X  c black",
"o  c black",
"O  c black",
"+  c #010000",
"@  c #010000",
"#  c None",
"$  c #020000",
"%  c #6A0E00",
"&  c #010000",
"*  c black",
"=  c #640D00",
"-  c #630D00",
";  c #5F0D00",
":  c #170300",
">  c #0B0100",
",  c #570C00",
"<  c #650D00",
"1  c #670E00",
"2  c #9F1500",
"3  c #9D1500",
"4  c #9B1500",
"5  c #921400",
"6  c #230500",
"7  c #110200",
"8  c #8A1200",
"9  c #9E1500",
"0  c #9C1500",
"q  c #020000",
"w  c #861200",
"e  c #CD1B00",
"r  c #C91A00",
"t  c #CA1A00",
"y  c #AA1700",
"u  c #8F1300",
"i  c #220500",
"p  c #160300",
"a  c #B11700",
"s  c #CB1B00",
"d  c #CA1B00",
"f  c #BF1900",
"g  c #8E1300",
"h  c #DA1D00",
"j  c #D71C00",
"k  c #B01700",
"l  c #180300",
"z  c #BD1900",
"x  c #D81C00",
"c  c #DA1C00",
"v  c #D61C00",
"b  c #AF1700",
"n  c #BC1900",
"m  c #901300",
"M  c #DD1D00",
"N  c #B21800",
"B  c #911300",
"V  c #DB1D00",
"C  c #4F0A00",
"Z  c #791000",
"A  c #771000",
"S  c #610D00",
"D  c #4F0B00",
"F  c #130300",
"G  c #0D0200",
"H  c #680E00",
"J  c #781000",
"K  c #700F00",
"L  c #370700",
"P  c #560B00",
"I  c #851100",
"U  c #831100",
"Y  c #7C1000",
"T  c #600D00",
"R  c #410900",
"E  c #3A0800",
"W  c #841100",
"Q  c #730F00",
"!  c #5C0C00",
"~  c #280500",
"^  c #5D0C00",
"/  c #7B1000",
"(  c #3C0800",
")  c #DE1D00",
"_  c #D01B00",
"`  c #A11500",
"'  c #6C0E00",
"]  c #DC1D00",
"[  c #C01900",
"{  c #9A1500",
"}  c #440900",
"|  c #9B1400",
" . c #CC1B00",
".. c #6B0E00",
"X. c #5F0C00",
"o. c #971400",
"O. c #420900",
"+. c #991400",
"@. c #D91C00",
"#. c #CF1B00",
"$. c #A01500",
"%. c #430900",
"&. c #A61600",
"*. c #A31500",
"=. c #510B00",
"-. c #480900",
";. c #A41500",
":. c #320700",
">. c #740F00",
",. c #A51600",
"<. c #4B0A00",
"1. c #030000",
"2. c #050100",
"3. c #040100",
"4. c #060100",
"5. c #080100",
"6. c #040000",
"7. c #540B00",
"8. c #530B00",
"9. c #520B00",
"0. c #400900",
"q. c #330700",
"w. c #130200",
"e. c #500A00",
"r. c #4E0A00",
"t. c #3D0800",
"y. c #260500",
"u. c #D41C00",
"i. c #A71600",
"p. c #831200",
"a. c #0F0200",
"s. c #CE1B00",
"d. c #8B1200",
"f. c #D51C00",
"g. c #D11B00",
"h. c #A31600",
"j. c #801100",
"k. c #310600",
"l. c #D21B00",
"z. c #C51A00",
"x. c #3B0800",
"c. c #2F0600",
"v. c #240500",
"b. c #390700",
"n. c #2C0600",
"m. c #1C0400",
"M. c #0A0100",
"N. c #100200",
"B. c #120200",
"V. c #0B0200",
"C. c #070100",
"Z. c #B81800",
"A. c #B51800",
"S. c #AC1700",
"D. c #851200",
"F. c #5A0C00",
"G. c #B61800",
"H. c #380700",
"J. c #811100",
"K. c #AA1600",
"L. c #841200",
"P. c #9A1400",
"I. c #871200",
"U. c #690E00",
"Y. c #470900",
"T. c #3F0800",
"R. c #7D1000",
"E. c white",
/* pixels */
"                                                                                                                    ",
"                                                                                                                    ",
"                                                                                                                    ",
"                                                                                                                    ",
"                                                                                                                    ",
"                                                                                                                    ",
"                                                                                                                    ",
"                                                                                                                    ",
"                                                                                                                    ",
"                                                                                                                    ",
"                                                                                                                    ",
"                                                                                                                    ",
"                                                                                                                    ",
"                                                                                                                    ",
"                              . X o O O O O O O O O O O O O O O O O O O O O O O o X .                               ",
"                            . + @ & & & & & & & & & & * * & & & & & & & & & & & & @ + .                             ",
"                            X @ # = - - - - - - - = ; : > , = - - - - - - - - - < # @ X                             ",
"                            o & 1 2 3 3 3 3 3 3 3 4 5 6 7 8 9 3 3 3 3 3 3 3 3 0 0 < & o                             ",
"                            O q w e r r r r r r t y u i p a s r r r r r r r d f 0 - & O                             ",
"                            O q g h j j j j j j j k u i l z x j j j j j j j x d 3 - & O                             ",
"                            O q g c v v v v v v v b u i l n x v v v v v v v j r 3 - & O                             ",
"                            O q g c v v v v v v v b u i l n x v v v v v v v j r 3 - & O                             ",
"                            O q m M c c c c c c c N B 6 l f V c c c c c c c h e 2 < & O                             ",
"                            O & C Z A A A A A A A S D F G H J A A A A A A A A K , L & O                             ",
"                            O * * * * * * * * * * * * * * * * * * * * * * * * * * * * O                             ",
"                            O & P I U Y T R * E W U U U U U U U Q ! ~ & ^ I U / T ( & O                             ",
"                            O q m ) h _ ` ' * S ] c c c c c c V [ { } q | M V e 2 < & O                             ",
"                            O q g c j  .9 ..* X.x v v v v v v j z o.O.q +.@.j r 3 - & O                             ",
"                            O q g c j  .9 ..* X.x v v v v v v j z o.O.q +.@.j r 3 - & O                             ",
"                            O q m M c #.$.' * T V @.@.@.@.@.@.h [ +.%.q | M h  .2 < & O                             ",
"                            O & ' &.*.| J =.* -.;.*.*.*.*.*.*.;.m Q :.q >.,.*.+.A <.& O                             ",
"                            O * 1.2.2.3.1.& * * 2.2.2.4.4.5.5.2.3.q * * q 2.2.2.6.q * O                             ",
"                            O & L 7.8.8.8.8.8.8.8.8.9.0.q.2.w.e.8.8.8.8.8.8.8.r.t.y.* O                             ",
"                            O q g h v v v v v v v j u.i.p.a.:.s.j v v v v v j t 3 - & O                             ",
"                            O q g h v v v v v v v v u.i.p.a.:.s.j v v v v v j t 3 - & O                             ",
"                            O q d.f.g.g.g.g.g.g.g.g.#.h.j.a.k.r l.g.g.g.g.g.l.z.+.S & O                             ",
"                            O * ~ t.( ( t.t.t.t.( ( x.c.v.1.G E ( t.t.t.t.( ( b.n.m.* O                             ",
"                            O * M.N.N.a.> 4.* 2.N.N.N.N.7 w.B.N.G M.q * M.N.N.a.V.C.* O                             ",
"                            O & J Z.A.S.D.F.* e.G.A.A.A.A.A.A.G.$.j.H.q J.Z.A.K.L.7.& O                             ",
"                            O q u ] @.s.$.' * T h x x x x x x @.f +.%.q P.] @.s 9 = & O                             ",
"                            o q u ) h _ ` ' * S ] c c c c c c V [ { } q | M h e 2 = & o                             ",
"                            X $ % u g I.U.Y.* T.u g g g g g g u R.= n.q < m g w 1 # @ X                             ",
"                            . + $ q q q & & * & q q q q q q q q q & & * & q q q & @ + .                             ",
"                              . X o O O O O O O O O O O O O O O O O O O O O O O o X .                               ",
"                                                                                                                    ",
"                                                                                                                    ",
"                                                                                                                    ",
"                                                                                                                    ",
"                                                                                                                    ",
"                                                                                                                    ",
"                                                                                                                    ",
"                                                                                                                    ",
"                                                                                                                    ",
"                                                                                                                    ",
"                                                                                                                    ",
"                                                                                                                    ",
"                                                                                                                    ",
"                                                                                                                    "
};
