/* XPM */
static char *af805149b0d24c4ad967d190b64c2980VQiJVFSnwLMNrAJ8[] = {
/* columns rows colors chars-per-pixel */
"58 58 130 2 ",
"   c #010000",
".  c #0B0403",
"X  c #130503",
"o  c #1A0604",
"O  c #1B0805",
"+  c #230A06",
"@  c #2C0A06",
"#  c #2B0C09",
"$  c #310B06",
"%  c #320E09",
"&  c #3E0F09",
"*  c #3C120C",
"=  c #400F09",
"-  c #45110B",
";  c #49130B",
":  c #52120A",
">  c #5D150C",
",  c #5C1910",
"<  c #67180E",
"1  c #6A190E",
"2  c #741A0E",
"3  c #791A0E",
"4  c #611910",
"5  c #7A1E13",
"6  c #7A2015",
"7  c #801C0E",
"8  c #941F0F",
"9  c #8A1E10",
"0  c #951F10",
"q  c #852015",
"w  c #8D2214",
"e  c #952315",
"r  c #9B2212",
"t  c #A42212",
"y  c #AB2210",
"u  c #B22312",
"i  c #B32412",
"p  c #B42411",
"a  c #B52411",
"s  c #B62411",
"d  c #B72412",
"f  c #B52411",
"g  c #B92511",
"h  c #B82412",
"j  c #BD2513",
"k  c #B92715",
"l  c #BA2715",
"z  c #BB2513",
"x  c #B72C1B",
"c  c #B72C1B",
"v  c #BC2B1A",
"b  c #BC2B1A",
"n  c #C12613",
"m  c #C12713",
"M  c #C22713",
"N  c #C52714",
"B  c #C32713",
"V  c #C42814",
"C  c #C52814",
"Z  c #C42815",
"A  c #CA2815",
"S  c #CB2915",
"D  c #CB2B17",
"F  c #CD2915",
"G  c #CF2A15",
"H  c #CD2A16",
"J  c #CF2A16",
"K  c #CD2915",
"L  c #C02C19",
"P  c #C22C19",
"I  c #C32C19",
"U  c #C02C1A",
"Y  c #C22C1A",
"T  c #C32C1A",
"R  c #C52C1A",
"E  c #C52D1A",
"W  c #C32C1A",
"Q  c #CF2C19",
"!  c #D02A15",
"~  c #D12A15",
"^  c #D02A16",
"/  c #D32A16",
"(  c #D72B17",
")  c #D62C16",
"_  c #D12A16",
"`  c #DB2C17",
"'  c #DC2C17",
"]  c #DC2C17",
"[  c #D02E1B",
"{  c #D52E19",
"}  c #D32E19",
"|  c #DC2F19",
" . c #DE2E19",
".. c #DD2E1A",
"X. c #DE2E1A",
"o. c #DC2D18",
"O. c #DF311C",
"+. c #DF311C",
"@. c #E12D18",
"#. c #E02E18",
"$. c #E12E18",
"%. c #E32E18",
"&. c #E32E19",
"*. c #E32F19",
"=. c #E62F19",
"-. c #E72F19",
";. c #E72F1A",
":. c #E42F19",
">. c #E82F19",
",. c #E92F19",
"<. c #E82F1A",
"1. c #E92F19",
"2. c #E0301B",
"3. c #E3301B",
"4. c #E2311B",
"5. c #E73019",
"6. c #E7301A",
"7. c #E7301B",
"8. c #E6311B",
"9. c #E4301B",
"0. c #E8301A",
"q. c #E8301B",
"w. c #E9301B",
"e. c #EA301A",
"r. c #EB311A",
"t. c #EB311B",
"y. c #EC3019",
"u. c #EC301A",
"i. c #EC311A",
"p. c #EC301A",
/* pixels */
"                                                                                                                    ",
"+ + + + + + + + O   . # # + + + + + + + + o   X % # + + + + + + + + + + .   # # + + + + + + + + + + o   X % # + + + ",
"t t t t t t t t w X @ [ D t t t t t t t t 1   , O.l t t t t t t t t t r @ . x { t t t t t t t t t t 2   , O.l t t t ",
"y y y y y y y y r X @  .( y y y y y y y y 2   4 0.N y y y y y y y y y t @ . U %.y y y y y y y y y y 2   4 0.N y y y ",
"y y y y y y y y r X @  .) y y y y y y y y 2   4 0.N y y y y y y y y y t @ . U %.y y y y y y y y y y 2   4 0.N y y y ",
"! ! ! m y y y y r X @  .%.! ! ! ! H u y y 2   4 0.` H ! ! ! ! ! m y y t @ . U ,.! ! ! ! ! ! H u y y 2   4 0.` H ! ! ",
"7.7.0.H t t t y e X @ { 0.7.7.7.7.%.i t y 2   , 7.7.7.7.7.7.7.0.H t t t @ . v 0.7.7.7.7.7.7.%.i t y 2   , 7.7.7.7.7.",
"= = & % @ @ @ @ +   . & = = = = = & $ @ @ O   o = = = = = = = & % @ @ @ .   % = = = = = = = & $ @ @ O   o = = = = = ",
"    . . . . . . . . . . . .       . . . . . . . . . . .       . . . . . . . . . . . .       . . . . . . . . . . . . ",
"  # x y 9 9 9 9 9 9 9 9 9 9 -   5 U r 9 9 9 9 9 9 9 9 9 2 . # x y 9 9 9 9 9 9 9 9 9 9 -   5 U r 9 9 9 9 9 9 9 9 9 9 ",
"  % 3.! y y y y y y y y y y :   e ,.h y y y y y y y y y 8 X % 3.! y y y y y y y y y y :   e ,.h y y y y y y y y y y ",
"  % 3.! y y y y y y y y y y :   e ,.p y y y y y y y y y 8 . % 3.! y y y y y y y y y y :   e ,.p y y y y y y y y y y ",
"  % 3.' m m m m m m j y y y :   e 0.D m m m m m m p y y 8 . % 3.' m m m m m m j y y y :   e 0.D m m m m m m p y y y ",
"  % 3.y.0.0.0.0.0.y. .y y y :   e y.0.0.0.0.0.0.0.V y y 8 X % 3.y.0.0.0.0.0.y. .y y y :   e y.0.0.0.0.0.0.0.V y y y ",
"  o 1 2 2 2 2 2 2 2 1 : : : +   ; 2 2 2 2 2 2 2 2 > : : -   o 1 2 2 2 2 2 2 2 1 : : : @   ; 2 2 2 2 2 2 2 2 > : : : ",
"                                                                                                                    ",
"1 1 1 1 1 1 < o . 6 w 1 1 1 1 1 1 1 1 1 1 ;   * e 5 1 1 1 1 1 1 1 1 1 1 o . 6 w 1 1 1 1 1 1 1 1 1 1 ;   * e 5 1 1 1 ",
"y y y y y y y @ . E %.y y y y y y y y y y 3   4 0.V y y y y y y y y y y @ . E %.y y y y y y y y y y 3   4 t.V y y y ",
"y y y y y y t @ . U %.y y y y y y y y y y 2   4 0.N y y y y y y y y y t @ . U %.y y y y y y y y y y 2   4 0.N y y y ",
"p p p u y y t @ . U %.h p p p p p p y y y 2   4 0.D p p p p p p u y y t @ . U %.h p p p p p p y y y 2   4 0.D p p p ",
"-.-.7.H y y y @ . E y.-.-.-.-.-.-.%.p y y 3   4 y.,.-.-.-.-.-.7.H y y y @ . E y.,.-.-.-.-.-.%.p y y 3   4 0.,.-.-.-.",
"t t t e 2 2 2 O . q t t t t t t t t 7 2 3 :   - t t t t t t t t e 2 2 2 O . q t t t t t t t t 7 2 3 :   - t t t t t ",
"                                                                                                                    ",
"  X , : - - - - - - - - - - +   * 4 ; - - - - - - - - - *   X , : - - - - - - - - - - +   * 4 ; - - - - - - - - - - ",
"  % 4.! y y y y y y y y y y :   e 7.p y y y y y y y y y 0 . % 4.! y y y y y y y y y y :   e 7.p y y y y y y y y y y ",
"  % 3.! y y y y y y y y y y :   e ,.h y y y y y y y y y 8 . % 3.! y y y y y y y y y y :   e ,.h y y y y y y y y y y ",
"  % 3.( y y y y y y y y y y :   e ,.h y y y y y y y y y 8 . % 3.( y y y y y y y y y y :   e ,.h y y y y y y y y y y ",
"  % 3.-. . . . . . .! y y y :   e y.%. . . . . . .j y y 8 X % 3.-.o.o. . . . .! y y y :   e y. . . . . . . .j y y y ",
"  # U Q Q Q Q Q Q Q Z 0 8 0 -   q [ Q Q Q Q Q Q Q y 0 8 7 . # U Q Q Q Q Q Q Q Z 0 8 0 -   q Q Q Q Q Q Q Q Q y 0 8 8 ",
"    X o o o o o o o X X . .     . o o o o o o o X X X X .     X o o o o o o o X X X X     . X X o o o o o X X X X X ",
"+ + + + + + +     # # + + + + + + + + + + X   X % @ + + + + + + + + + + .   # # + + + + + + + + + + X   X % @ + + + ",
"t t t t t t r @ . x { t t t t t t t t t t 1   , O.l t t t t t t t t t r @ . x { t t t t t t t t t t 2   , O.l t t t ",
"y y y y y y t @ . U %.u y y y y y y y y y 2   4 0.N y y y y y y y y y t @ . U %.y y y y y y y y y y 2   4 0.N y y y ",
"y y y y y y t @ . U %.u y y y y y y y y y 2   4 0.N y y y y y y y y y t @ . U %.u y y y y y y y y y 2   4 0.N y y y ",
"! ! ! m y y t @ . U ,.! ! ! ! ! ! H u y y 2   4 0.` H ! ! ! ! ! m y y t @ . U ,.! ! ! ! ! ! H u y y 2   4 0.` H ! ! ",
"7.7.0.H t t t @ . v 0.7.7.7.7.7.7.%.i t y 2   , 7.7.7.7.7.7.7.0.H t t t @ . v 0.0.0.7.7.7.7.%.i t y 2   , 7.7.7.7.7.",
"= = & % @ @ @ .   % = = = = = = = & $ @ @ O   o = = = = = = = & % @ @ @ .   % = = = = = = = & $ @ @ O   o = = = = = ",
"    . . . . . . . . . . . .       . . . . . . . . . . .       . . . . . . . . . . . .       . . . . . . . . . . . . ",
"  # x y 9 9 9 9 9 9 9 9 9 9 -   5 U r 9 9 9 9 9 9 9 9 9 2 . # x y 9 9 9 9 9 9 9 9 9 9 -   5 U r 9 9 9 9 9 9 9 9 9 9 ",
"  % 3.! y y y y y y y y y y :   e ,.h y y y y y y y y y 8 X % 3.! y y y y y y y y y y :   e ,.h y y y y y y y y y y ",
"  % 3.! y y y y y y y y y y :   e ,.p y y y y y y y y y 8 . % 3.! y y y y y y y y y y :   e ,.p y y y y y y y y y y ",
"  % 3.' m m m m m m j y y y :   e 0.D m m m m m m p y y 8 . % 3.' m m m m m m j y y y :   e 0.D m m m m m m p y y y ",
"  % 3.y.0.0.0.0.0.y. .y y y :   e y.0.0.0.0.0.0.0.V y y 8 X % 3.y.0.0.0.0.0.y. .y y y :   e y.0.0.0.0.0.0.0.V y y y ",
"  o 1 2 2 2 2 2 2 2 1 : : : +   ; 2 2 2 2 2 2 2 2 > : : -   o 1 2 2 2 2 2 2 2 1 : : : +   ; 2 2 2 2 2 2 2 2 > : : : ",
"                                                                                                                    ",
"1 1 1 1 1 1 < o . 6 w 1 1 1 1 1 1 1 1 1 1 ;   * e 5 1 1 1 1 1 1 1 1 1 < O . 6 w 1 1 1 1 1 1 1 1 1 1 ;   * e 5 1 1 1 ",
"y y y y y y y @ . E %.y y y y y y y y y y 3   4 0.V y y y y y y y y y y @ . E %.y y y y y y y y y y 3   4 0.V y y y ",
"y y y y y y t @ . U %.y y y y y y y y y y 2   4 0.N y y y y y y y y y t @ . U %.y y y y y y y y y y 2   4 0.N y y y ",
"p p p u y y t @ . U %.h p p p p p p y y y 2   4 0.D p p p p p p u y y t @ . U %.h p p p p p p y y y 2   4 0.D p p p ",
"-.-.7.H y y y @ . E y.-.-.-.-.-.,.%.p y y 3   4 0.,.-.-.-.-.-.7.H y y y @ . E y.-.-.-.-.-.-.%.p y y 3   4 0.,.-.-.-.",
"t t t e 2 2 2 O . q t t t t t t t t 7 2 3 :   - t t t t t t t t e 2 2 2 + . q t t t t t t t t 7 2 3 :   - t t t t t ",
"                                                                                                                    ",
"  X , : - - - - - - - - - - +   * 4 ; - - - - - - - - - *   X , : - - - - - - - - - - +   * 4 ; - - - - - - - - - - ",
"  % 4.! y y y y y y y y y y :   e 7.p y y y y y y y y y 0 . % 4.! y y y y y y y y y y :   e 7.p y y y y y y y y y y ",
"  % 3.! y y y y y y y y y y :   e ,.h y y y y y y y y y 8 . % 3.! y y y y y y y y y y :   e ,.h y y y y y y y y y y ",
"  % 3.( y y y y y y y y y y :   e ,.h y y y y y y y y y 8 . % 3.( y y y y y y y y y y :   e ,.h y y y y y y y y y y ",
"  % 3.-. . . . . . .! y y y :   e y. . . . . . . .j y y 8 . % 3.-. . . . . . .! y y y :   e y. . . . . . . .j y y y ",
"  % +.y.y.y.y.y.y.y.%.u y y :   e y.y.y.y.y.y.y.y.N y y 8 . % +.y.y.y.y.y.y.y.%.u y y :   e y.y.y.y.y.y.y.y.N y y y "
};
