/* XPM */
static char *_10131ab95c94afec1f3da01ac8859d2dvLCeIVyc8xAzsD5[] = {
/* columns rows colors chars-per-pixel */
"58 58 151 2 ",
"   c #010101",
".  c #0B0B0B",
"X  c #10100F",
"o  c #141414",
"O  c #181717",
"+  c #1C1C1C",
"@  c #232323",
"#  c #282827",
"$  c #2B2B2B",
"%  c #302F2F",
"&  c #343434",
"*  c #383737",
"=  c #3B3B3B",
"-  c #40403F",
";  c #434343",
":  c #484747",
">  c #484847",
",  c #474848",
"<  c #4B4B4B",
"1  c #504F4F",
"2  c #50504F",
"3  c #4F5050",
"4  c #545453",
"5  c #585757",
"6  c #585857",
"7  c #575758",
"8  c #5C5C5B",
"9  c #605F5F",
"0  c #60605F",
"q  c #646363",
"w  c #646463",
"e  c #656463",
"r  c #646464",
"t  c #656464",
"y  c #656564",
"u  c #656565",
"i  c #666564",
"p  c #666565",
"a  c #666665",
"s  c gray40",
"d  c #676666",
"f  c #676766",
"g  c #676767",
"h  c #646363",
"j  c #686766",
"k  c #686767",
"l  c #686767",
"z  c #686867",
"x  c #696867",
"c  c #686867",
"v  c #686868",
"b  c #696868",
"n  c #696968",
"m  c #6A6968",
"M  c #6A6969",
"N  c #6A6A69",
"B  c #6B6A69",
"V  c #6A6A6A",
"C  c #6B6A6A",
"Z  c #6B6B6A",
"A  c gray42",
"S  c #6C6B6A",
"D  c #6C6B6B",
"F  c #6C6C6B",
"G  c #6D6C6B",
"H  c #6C6C6C",
"J  c #6D6C6C",
"K  c #6D6D6C",
"L  c #6E6D6C",
"P  c #6E6D6D",
"I  c #6E6E6D",
"U  c gray43",
"Y  c #6F6E6E",
"T  c #6F6F6E",
"R  c #6F6F6F",
"E  c #6C6C6C",
"W  c #706F6F",
"Q  c #706F6F",
"!  c #70706F",
"~  c #71706F",
"^  c #70706F",
"/  c gray44",
"(  c #717070",
")  c #717170",
"_  c #717171",
"`  c #727171",
"'  c #727271",
"]  c #727272",
"[  c #737272",
"{  c #737372",
"}  c gray45",
"|  c #747373",
" . c #747473",
".. c #747474",
"X. c #757474",
"o. c #757574",
"O. c gray46",
"+. c #767574",
"@. c #767575",
"#. c #767675",
"$. c #777676",
"%. c #777776",
"&. c #747373",
"*. c #787777",
"=. c #787777",
"-. c #787877",
";. c #797877",
":. c #787877",
">. c gray47",
",. c #797878",
"<. c #7A7978",
"1. c #7A7979",
"2. c #7A7A79",
"3. c gray48",
"4. c #7B7A7A",
"5. c #7B7B7A",
"6. c #7C7B7B",
"7. c #7C7C7B",
"8. c #7D7C7C",
"9. c #7D7D7C",
"0. c #7E7D7D",
"q. c #7E7E7D",
"w. c #7E7E7E",
"e. c #7F7E7E",
"r. c #7B7B7A",
"t. c #807F7E",
"y. c #807F7F",
"u. c #807F7F",
"i. c #80807F",
"p. c #80807F",
"a. c #818080",
"s. c #818180",
"d. c #828180",
"f. c #828181",
"g. c #828281",
"h. c #838282",
"j. c #838383",
"k. c #848382",
"l. c #848383",
"z. c #878686",
"x. c #848383",
"c. c #888786",
"v. c #888787",
"b. c #888787",
"n. c #898887",
"m. c #888888",
"M. c #8D8C8C",
"N. c #8D8D8C",
"B. c #8C8B8B",
"V. c #908F8F",
"C. c #949393",
/* pixels */
"$ * $ $ ; < = < ; < < < < 6 4 6 6 9 t 7 - ; < > = ; = ; < ; ; = ; 4 6 b h t 7 < = & ; & $ $ o + $ $ = ; ; = = * $ $ ",
"9.i.,.%.7.6.b < 7 8 b { %.| ,.| %.,.9.,.,.,.9.y.9.;.6.y.,.%.,.4 ; < ; F { b h b b b W b K { K b 9.{ K h h t %.;.%.6.",
"b h t W { W K < , 8 %.K K b t 8 t K ! b ! { t 9 K { W D K K b t & ; 6 ,.9.y.6.%.! %.{ %.%.| ;.,.s.7.4 ; < 7 b 8 h t ",
"6 h t w D b 8 ; < 4 D h t t w w h b K b b K x k K K b D x K K t $ & 6 K b q t k h t t K K k h t K t 7 6 4 ; b q t h ",
"h w t t b { 4 $ < h | b h ! b t w h D K t b h t k b W D t b t 9 + O < b b K b K { K K { { K 0 9 t < ; 6 ; ; t h t K ",
"{ x t t F { 4 @ ; h  .W F x D K K b K ! K b h h D h K D t t b 6 @ + ; b b { ;.| b K W K b b b t t ; + $ < 4 { F b W ",
"b w 8 t {  .4 6 7 q K { K K { x t K K { ! t h t t t k k t b K 6 * # ; t b D K { W D K K t t K K h = * $ = 8 D h h h ",
"K b b t q b 8 t h b { | { b K b t k b { { b b k h x t b K t D < < 7 ; k { b b W { { { K D D b h 6 ; 7 = @ 7 b K K { ",
"%.%.,.%.{ ! 6 ; 7 w 8 b b b W W t b %.%.%.%.! D h h h b K b { 4 t 8 & < b { { { K { ! { %.%.D D < * < ; # < ,.K K %.",
"8 h t D t h = 6 ; b { K h 8 q b { { { b 8 6 < < 6 4 6 7 q  .b ; t b $ . # ; 8 { %.%.,.*.{ t ; +   * 6 8 h & 5 7 7 6 ",
"      . .   + b #   + # $ X   + $ @ O           o $ $ @ O +   # 8 8 <         + $ * * $ +       . * = = 6 #         ",
"+ . .     O ; 8 4 o         o           . o O . .           . * * $ # * $ + .               .   . ; h ; + + o . O + ",
"; ; ; < < 4 < ; 8 %.K h t { 9.,.7 $ = < ; < t t 8 ; 4 b b D h { t 8 4 t { K K 6 < < = = = + $ @ + = ; b 6 t t < 7 = ",
"; ; ; ; < K ,.s.z.s.s.s.s.,.9.l.M.m.s.9.,.8 7 8 < ,.s.8 9.s.< W l.9.9.6.,.6.9.l.v.M.K 4 4 ; 6 { h %.l.l.v.z.,.,.%.t ",
";.W = & 4 V.s.*.%.K k D K K { { { %. .| ,.9.< ; 4 K W 8 4 K 4 h *.{ K K W { K | 8 8 7.h < t 9 h b t t W K 8 6 k k { ",
"b 8 < ; 7 %.b W { K K { K { %.{ K %.%.{ K *.6 = < q ! w 6 b 8 = 8 b *.%.%.{ t 7 1 ; ; 4 7 6 K { 8 8 6 8 8 4 K t b %.",
"k = * 7 h %.{ { %.%.%.{ { *.%.K W %.{ W K K K 7 < 9 | F t h K %.7 7 6 t 8 8 h b { { t ; ; < w k h q h h t t h b b b ",
"b = @ * 9 ,.{ | %.%.%.K K | %.%.%.%.{ | ! K k b 7 4 %.W { { t t ,.9.{ K b %.{ { K K ,.< * $ t { b h 9 K K { D b { { ",
"t & * $ 7 b ,.%.{ W { W K { | %.,.{ | { D ! b t t 6 %.%.;.{ | { 8 8 w b w 8 h t %.%.%.h ; ; 8 < 4 4 4 K x b { { { { ",
"$ + * O < < 8 K { %.{ %.*.*.%.%.,.%.K X.{ %.K < 4 8 %.{ *.;.%.%.,.K K K K K K 6 9 w t 4 6 < ; h h b b w 8 h t F { t ",
"  & < ; @ 7 7 7 6 8 9 6 7 < < 7 8 8 6 7 < < $ * < $ 7 h 6 8 t { *.,.,.,.,.%. .%.{ { 7 o 4 < * 8 7 7 t { { { { t 4 @ ",
"+ 4 6 7 @   . .   .                           $ ; #           + $ * = ; < 6 t b 7 = . . < ;       . + $ $ # @ O     ",
"< ; < = * + . . . . . o .   . . . o + @ $ @ * 8 4 b = @ # + .                         < < $ + . . .             o * ",
"4 ; = = 4 6 < ; ; ; ; ; & & & 7 z.s.z.v.z.9.s.9.9.s.s.l.l.s.y.{ t 6 * o O $ o o # = 8 8 4 ; < < = $ = = $ * * * 8 4 ",
"7.9.s.s.z.z.9.9.9.{ 8 < 8 7 < %.,.%.%.%.{ ! { | { { { W W { *.9.z.C.C.M.= ; * ; t b < b s.t 7.{ b 7 q x ; < t b { ,.",
"%.*.%.%.| { *.,.;.9.l.8 = * = b 6 6 h b t K b 6 b W K K w b W K t { | z.< + ; h 7 * 8 ,.! 6 { K  .K k b %.,.,.s.i.,.",
"W %.;.%.%.{ %.*.,.%.{ h + o & %.{ { { K b b K t 6 b D b K K W ! { { { | h ; < 6 4 %.m.! 8 < 1 h t 6 6 t q b K K K { ",
"%.t 7 b b 8 8 w 7 7 ,.; $ 6 h D K b { K K K W %.b h %.D { %.| %.%.{ { %.,.8 t < D z.{ K 5 6 6 0 h 6 t { %.{ { { { { ",
",.t ; %. .{ { | K < 7 $ 7 < 4 b x F k h K K t D { 7 6 %.{ { | { | { { *.6 ; 6 4 { K K { < %.b 8 b K K  .,.%.{ K t b ",
"K %.< h ,. .{ %.%.9.h $ 8 $ < | K K b b b K K K { 7 4 *.%. .%.{ { K { s.$ # = 8 %. .%.x = 7 8 t W b b {  .K %.{ D K ",
"K b < h |  .%.{ { { b < < ; 4 ,.%.{ K b K E t t W K 7 { {  .%.*.=.| ;.= + t = 4 D ! ! K 4 1 h 8 x K t K K ! { | K b ",
"x 7 b %.K { %.*.%.,.*.- = < ; { { W %.K b %.{ K W K 8 K =.{ { { { ,.*   < 8 $ 8 { b b K W 8 0 h q b t b F D D { K { ",
"b s.9.,.,.{ b 8 ; ; * = 4 h ; t { { { K K { { { K W 6 6 %.| %.| %.9.$ O @ @ $ ; K b { ! K K b b K k 9 h t t k K ,.! ",
"* $ $ # @ + .         ; h h ; ; %.%. .{ W D K { %.| t 7 { K t 8 6 = @ ; < ; @   O @ @ # $ # @ $ & * = $ O o O @ & % ",
"            . $ * = * 8 8 < < . + # @ O o . O @ # $ $ + + o         = < < = < @                                     ",
"7 t { t K h h { 9.%.h 6 < t { <         . .                 . @ $ * < 6 = 4 > 8 < & + = < < = ; ; $ $ ; $ . = 6 < ; ",
"M.C.C.C.C.C.C.m.B.m.s.h t 6 8 b ,.y.7.s.s.,.b 7 < = $ ; ; 8 z.C.C.C.m.n.M.M.m.M.V.v.9.K ; < %.s.v.K = & O = h b v.V.",
"{ K { *.;.7.y.z.z.s.l.K ,.%.h 8 s.m.9.%.{ *.6.s.z.8 $ $ < { m.l.,.%.{ { %.{ { *.K K D 7.7.%.;.b t ;.6 O & h 7 h ,.*.",
"D K { %.,.%.%.,.l.z.i.q ; 7 4 4 { b { { F K K K { 7 < $ < k 4 %.| %.K F { K K  .{ K t 8 b { k b b b b $ = 8 < ; K K ",
"{ %.%.%.,.6.7.,.,.l.s.t ; + * 4 6 t 4 F 9.| ! K  .6 < 8 7 %.6 b F x x %.%.| K %.{ K K b 8 h K { { { { 8 # O 4 t K { ",
"%.%.%.%.%.,.*.%.,.9.s.b < < 4 b ,.,.%.8 6 F { |  .6 = & = ! t 8 F K q b ,.b b K K K F t 9 h t k %.W = $ < # $ h K { ",
"%.%.{ { { %.{ %.;.,.s.h 4 ; = t  .W { { 8 q h t b 7 7 8 $ 8 K 6 K %.%.K %.;.8 5 7 9 h 8 8 K b t %.* @ 2 7 ; $ t %.{ ",
"| |  .{ { %.%.%.%.%.9.w < 4 = 8 %.{ W K D q b K b h 8 K $ $ b h 6 { %.b < 8 K b 6 t h F { { K W h $ { + & 8 = h %. .",
"{ %.7.9.%.%.%.;.%.%.6.h 4 t 4 h ,.{ { F W K D K K { 8 4 *   @ ; < < < ; 4 K %.4 h h 8 8 K %.h = @ o .   $ $ : 8 %.%.",
",.,.4 = 8 8 < = ; 2 6 & < 6 4 h 9.,.%.b h 8 4 h F { 8 < h $             o + = < ; ; @ . O # .     .   # ; 4 ; ; 6 t ",
"$ @                   . < < $ + < 4 * .       . * 4 = ; ; ; = + o o + +                     . * ; = = # ; < ; .   . ",
"    $ $     O O + $ + & $ $ + .       .   . O       @ 8 4 & = b 6 ; 8 t 7 = @ + + @ = 8 4 $ ; 7 6 8 < = ; 7 7 # .   ",
"t t z.m.s.s.i.,.s.B.C.B.%.< < < ; ; t %.b { W 8 < ; h ,.b t { ;.,.9.| 9.z.| 6 7 h 7 < ; < D ( %.%.,.,.{ h z.,.,.9.%.",
"m.z.l.z.z.9.,.%.K K %.,.z.M.%.; 3 %. .K *.,.%.,.l.z.9.,.{ t { K { K ! K %.s.q 4 ; = ; < s.m.9.*.{  .%.{ < t { | 6.y.",
"K b K %.%.%.%.{ K K K { 9.z.s.; $ < F b h b K K K b b t h h 6 7 8 b D K W ,.6.< < 6 5 t { K b t { { %.{ t 4 K b { K ",
"{ K K { %.%.%.{ K %.{ F { 9.9.t * + b k k b { %.K b K k F b { K 4 t D b w { l.h < 7 7 k h k w k | K { K q 5 ( %.X.%.",
"%.K k K { { { %.{ | { { { K %.q h $ = K b b K { K K b k F { { %.D 7 6 b K { ;.%.< ; 7 0 h t b { %.{ { b %.7 t %.%.%.",
" .{ { %.,.%.%.,.,.%.{ K K K | t < * + b t F K | %.W ! { K K F K t t 8 h K K b 8 ; < 8 h t t b W %.{ h t { K 6 *.{ | ",
"%.%.%.%.%.;.%.=.%.K K %.K b ! h 7 4 ; K W t ! | | %. .| K K W W K b h 6 W h 8 h $ $ 4 h b D K { { %.D b b K 2 D *.%.",
"{ W K { %.| %.%.{ { W { b q { 9 7 K t *.{ K { | ! K { { K b F K { { k 6 t < { 6 < t 8 h 8 k K { { K { { W { K 8 8 { ",
"{ X.,.%.%.6.9.%.9.9.{  .K b b * < 6 6 %.%.K ! F W { { %.{ { { { *.{ K K K K { = 6 < ; b k { ,.{ W D { K W ,.*.9.6 K ",
"= = * * * ; < < ; * $ # + + . . ; < & $ * $ + + $ $ $ $ $ # $ $ $ @ O + + + . . h 8 o $ & $ $ = : 7 6 4 4 < ; ; & * ",
"                              $ = $ $                               .       . ; 8 b $                               "
};
