/* XPM */
static char *e542e01a2e4b4d40950970ecf230a0ea9GlPEeXIPzhQMyp4[] = {
/* columns rows colors chars-per-pixel */
"58 58 151 2 ",
"   c #000000",
".  c #0B0503",
"X  c #0D0906",
"o  c #100703",
"O  c #150904",
"+  c #1B0C05",
"@  c #130D09",
"#  c #1D0F08",
"$  c #17100C",
"%  c #1B120E",
"&  c #1F1510",
"*  c #220F06",
"=  c #251106",
"-  c #2A1307",
";  c #25120A",
":  c #2D1408",
">  c #331609",
",  c #36180A",
"<  c #3A1A0B",
"1  c #211711",
"2  c #241912",
"3  c #2B1D15",
"4  c #2F2017",
"5  c #392115",
"6  c #33231A",
"7  c #39261C",
"8  c #3E2A1F",
"9  c #421D0C",
"0  c #411F10",
"q  c #46200E",
"w  c #4B220E",
"e  c #51240F",
"r  c #452111",
"t  c #4C2412",
"y  c #472C1E",
"u  c #4C2B1B",
"i  c #522612",
"p  c #552914",
"a  c #5B2C16",
"s  c #512A18",
"d  c #5D2E18",
"f  c #622E15",
"g  c #612F18",
"h  c #663117",
"j  c #6B3216",
"k  c #65311A",
"l  c #6A341C",
"z  c #6C351C",
"x  c #6D351C",
"c  c #6E361C",
"v  c #6F361C",
"b  c #6F361D",
"n  c #6B341B",
"m  c #70351A",
"M  c #70361D",
"N  c #70371D",
"B  c #71371D",
"V  c #73371C",
"C  c #71371D",
"Z  c #76381B",
"A  c #72381D",
"S  c #73381D",
"D  c #76391D",
"F  c #74391E",
"G  c #75391E",
"H  c #773A1E",
"J  c #763A1F",
"K  c #773A1F",
"L  c #75391E",
"P  c #79391C",
"I  c #7B3B1D",
"U  c #783A1F",
"Y  c #783B1F",
"T  c #793B1F",
"R  c #7A3B1F",
"E  c #7A3C1F",
"W  c #7B3C1F",
"Q  c #7A3B1E",
"!  c #442F22",
"~  c #432D21",
"^  c #4B2F20",
"/  c #463023",
"(  c #4B3325",
")  c #4E3527",
"_  c #4C3325",
"`  c #503526",
"'  c #513728",
"]  c #533829",
"[  c #543A2A",
"{  c #553A2A",
"}  c #5A3D2D",
"|  c #5B3E2D",
" . c #5D3F2E",
".. c #5B3E2D",
"X. c #7A3C20",
"o. c #7B3C20",
"O. c #7C3D20",
"+. c #7D3D20",
"@. c #7E3E20",
"#. c #7E3E21",
"$. c #7F3E21",
"%. c #7C3D20",
"&. c #5F402F",
"*. c #634332",
"=. c #674633",
"-. c #644432",
";. c #694734",
":. c #6A4835",
">. c #6D4A36",
",. c #6F4C38",
"<. c #704C38",
"1. c #724D39",
"2. c #724D39",
"3. c #76503B",
"4. c #7A533D",
"5. c #7F563F",
"6. c #7B533D",
"7. c #7F5640",
"8. c #813E1F",
"9. c #803E21",
"0. c #803F21",
"q. c #813F21",
"w. c #823F21",
"e. c #813F21",
"r. c #834022",
"t. c #844022",
"y. c #844122",
"u. c #854122",
"i. c #854123",
"p. c #864122",
"a. c #864123",
"s. c #874223",
"d. c #844122",
"f. c #884323",
"g. c #894323",
"h. c #8B4424",
"j. c #8A4424",
"k. c #8C4524",
"l. c #8D4525",
"z. c #8A4424",
"x. c #805740",
"c. c #825841",
"v. c #845941",
"b. c #8A5D45",
"n. c #8E6046",
"m. c #906147",
"M. c #95654A",
"N. c #98674C",
"B. c #9D6B4E",
"V. c #A16D50",
"C. c #A57153",
/* pixels */
"                                                                                                                    ",
"                                                                                                                    ",
"                                                                                                                    ",
"                                                                                                                    ",
"                                                                                                                    ",
"                                                                                                                    ",
"                                                                                                                    ",
"                                                                                                                    ",
"                                                                                                                    ",
"                                                                                                                    ",
"                                                                                                                    ",
"                                                                                                                    ",
"                                                                                        . . . . .                   ",
"                                                                            . X O = , < < < , , > O                 ",
"                                                                . X + * - : > < 9 w w w q w f j f p - X .           ",
"                                                      . X + - < 9 e e q w q q i p a d k A w.u.W k g a i >           ",
"                            . . X X . X X o O + * : , 9 q e f j d d g k k a g c c k k k n c k k k k p k g #         ",
"                  @ 2 $ X O - < 9 9 9 9 9 9 9 q t p d g k c d a p p k J J V +.J k l J +.r.J l l n c g p i > .       ",
"              X % 3 8 } 4.} 6 3 i f p d k k k k k h J o.J n k k a t f c V V V o.f.k.k.f.+.V c c A J o.W Y o.>       ",
"            X 7 6 6 6 % 6 -.5.{ y J u.+.c d h c J +.f.k.h.+.J V c h l c V Y u.k.k.h.h.f.u.r.u.u.u.u.w.Y J d +       ",
"            1 7 3  .:.} ) 3 } c.! s d p c Y u.u.+.A h k d a d k n J +.w.+.J V n k k k g f f f f a p p k w.V X       ",
"          1 7 3 ( ] c.c.2.2.7 -.*.u w.J J V n h k h n Z Y Y Z m h h n n n h h h j j j j j j f f j Y 8.J n i .       ",
"        @ / 2 6 7 4.M.3.M.,.5.-.b.u h d n V f.k.h.f.u.w.o.V k k k V Y o.+.w.r.+.+.W J c k h J u.k.u.P j f :         ",
"        $ 3 $ 7 8 c.2.4.b.v.2.) 5.y J w.Y A J J V c n a t r t i p p p i p k c A J Y J A A J J V h k k k < X         ",
"        $ 6 3 { ( M.3.,.m.5.,./ 2.y J o.c V c c c n d i t p d n Y J J J W f.g.f.w.V k h h i i , = + + - .           ",
"        % 3 3 ,.( B.N.B.M.2.*.} ,.s r.h.h.u.J c h k h l c c c c k d d a t r t < < 9 < : > : : * = - O .             ",
"        X 6 6 v.{ / 5.B.2.c.~ ,.` r p h n k k k g d d p t t 9 q < < , < : = * = : + O + - , < , > , - - : O         ",
"        X ( 7 ! 5.2.' { n.] ) b.u h f f p q < , , + - = + = = + = : * * , , + * - = < e f a i r t p a g d a t O     ",
"          $ / 3 { M.B.n.' ( 2.6 O + + O + + X + * = : * * * : = , , < > < 9 9 t t a f n k d d k c l k k k g k r O   ",
"          X ~ ,.6 ) *.*.{ n.! O . X = + + = * , , 9 w w q w q q i p a f n W w.Y J A k h g t t t p a a d a p t q =   ",
"      @ 7 6 1 ' ,.x.b.B.m.3 . % @ + : 9 q r r r r t p d h n c A V c Y Y A h k k c V J J V l n k k g d d d k k k k + ",
"    @ { ) $ $ 1 7 } { { 2 $ 8  .{ 6 ; t d a p p a p p i t r r r 0 d W W c k k k n V h h k k k n c A J J V k p t < . ",
"  . 7 *.&.7 6 / 8 3 % X ! *.{ ] } 4.{ 7 u V +.+.A k d k k h l V o.+.A n a p p i 9 < > < r t t t r r t t t t p d <   ",
"  $ ] -.{ 2.3.] } 6 1 / 3.:.,.&.2.2.n.3.6 # p k k k k k g k d c k r < d c h d p p k V k p r r t t p a a p t t t ;   ",
"  8 '  .2.3.&.) ( ~ $ :.:.,.-.,.n.b.*.C.b.6 r l h l V J +.w.A p c Y o.p q = O X - 9 J k.J l n d i t t t p p p >     ",
"X ] ( _ 2.) 7 :.]  .~ 3.-.} :.4. .,.;.b.B.} r g d g k k k g k J o.k c i e 9 > , q p Y w.k i q q p d d d d g d ;     ",
"% { ( ( -.8 } *.,.}  .-.*.' { 4.8 ' :.,.C.2.5 n k k k k h k l d d V +.Y h k k g a p p r q q i a d l h n l h < .     ",
"& { ' { 5.2.{ x.} *.-. .{ 7 3 ( 6 -.4.:.M.5.y A n k g g h k d i i i t p a p p i i i t t p J +.+.u.+.k r > - .       ",
"@  .) *.-.b.n.5.2.) &.} '  .,.4 ~ c.3.8 c.c.u r.J A A n h k h f f d a i t q w t i p d k h k a a p 9 - o             ",
".  .{ *.,.} -. .2.3 *.-.*.:.M.M.B.5.4.) b.2.t g k h h g a i t w e i i i i p a h V k t q t w < , * + o .             ",
"  1 4.{  .-.{ { } { ~ ) } 4.} M.N.,.-.&.B.-.k J m Y Y g d d d k g p 0 r d a p r < : > , - + O .                     ",
"  . 8 *.( 8 8 } -.,.! 7 ! / ;.3.2.-.! c.,.5 d V c h g r r r r < > , < q 9 : = - = - O . .                           ",
"      $ ( *.-.:.] 8 X X ) { } x.&./ 4.B._ < < < > > < 9 > > < , , < , < = O + o . .                                 ",
"          X X @ .       $ ( -.b.M.V.V.' ; > = + = = = * + + O O O O O . .                                           ",
"                          % ) } &.( 6 @ + + O O O O o . .                                                           ",
"                            . X .                                                                                   ",
"                                                                                                                    ",
"                                                                                                                    ",
"                                                                                                                    ",
"                                                                                                                    ",
"                                                                                                                    ",
"                                                                                                                    ",
"                                                                                                                    ",
"                                                                                                                    ",
"                                                                                                                    ",
"                                                                                                                    ",
"                                                                                                                    ",
"                                                                                                                    "
};
